<?xml version="1.0" encoding="iso-8859-1"?>
<!-- Generator: Adobe Illustrator 17.1.0, SVG Export Plug-In . SVG Version: 6.00 Build 0)  -->
<!DOCTYPE svg PUBLIC "-//W3C//DTD SVG 1.1//EN" "http://www.w3.org/Graphics/SVG/1.1/DTD/svg11.dtd">
<svg version="1.1" id="Capa_1" xmlns="http://www.w3.org/2000/svg" xmlns:xlink="http://www.w3.org/1999/xlink" x="0px" y="0px"
	 viewBox="0 0 475.801 475.801" style="enable-background:new 0 0 475.801 475.801;" xml:space="preserve">
<path d="M292.597,168.601h17.449c4.142,0,7.5-3.357,7.5-7.5V119.21c0-4.143-3.358-7.5-7.5-7.5s-7.5,3.357-7.5,7.5v34.391h-9.637
	l8.294-75.396c0.002-0.014,0.003-0.027,0.005-0.041l0.003-0.025c0.003-0.03,0.002-0.059,0.005-0.089
	c0.022-0.222,0.036-0.445,0.038-0.669c0.001-0.065-0.005-0.13-0.006-0.195c-0.003-0.189-0.01-0.378-0.028-0.567
	c-0.008-0.084-0.022-0.167-0.032-0.25c-0.021-0.166-0.044-0.333-0.077-0.499c-0.02-0.102-0.047-0.203-0.071-0.305
	c-0.034-0.143-0.069-0.285-0.113-0.427c-0.036-0.118-0.078-0.233-0.12-0.349c-0.031-0.085-0.054-0.172-0.088-0.256
	c-0.294-0.735-7.327-18.217-17.987-35.982C267.167,12.61,252.503,0,237.9,0s-29.267,12.61-44.831,38.551
	c-10.66,17.766-17.693,35.247-17.987,35.982c-0.034,0.085-0.057,0.171-0.088,0.256c-0.042,0.117-0.085,0.234-0.121,0.353
	c-0.043,0.141-0.077,0.281-0.111,0.423c-0.025,0.103-0.052,0.205-0.072,0.309c-0.033,0.166-0.055,0.331-0.077,0.497
	c-0.011,0.084-0.025,0.167-0.033,0.251c-0.018,0.193-0.025,0.385-0.028,0.578c-0.001,0.061-0.006,0.122-0.005,0.183
	c0.002,0.24,0.016,0.479,0.041,0.717c0.002,0.015,0.001,0.03,0.003,0.045l0.001,0.011c0.002,0.018,0.004,0.036,0.006,0.054
	l8.376,75.389h-9.721V119.21c0-4.143-3.358-7.5-7.5-7.5s-7.5,3.357-7.5,7.5v41.891c0,4.143,3.358,7.5,7.5,7.5h17.449
	l-24.923,299.077c-0.174,2.09,0.535,4.158,1.955,5.701c1.42,1.544,3.422,2.422,5.519,2.422h144.291c2.097,0,4.099-0.878,5.519-2.422
	c1.42-1.543,2.129-3.611,1.955-5.701l-5.029-60.353c0-0.001,0-0.002,0-0.003l-11.373-136.478c0,0,0-0.001,0-0.002L292.597,168.601z
	 M277.818,153.601H261.47l4.86-19.442c2.204-8.815,0.261-17.979-5.332-25.142c-5.592-7.163-14.011-11.271-23.098-11.271
	s-17.506,4.107-23.098,11.271c-5.592,7.162-7.536,16.326-5.332,25.142l4.86,19.442h-16.263l-7.642-68.782h94.959L277.818,153.601z
	 M192.575,236.773l88.636-24.174l4.428,53.131l-97.702,26.693L192.575,236.773z M186.611,308.335l100.294-27.402l4.42,53.036
	l-109.319,29.62L186.611,308.335z M180.682,379.49l111.91-30.323l4.418,53.021L176.054,435.02L180.682,379.49z M279.945,197.397
	l-86.044,23.467l4.355-52.264h34.371c4.142,0,7.5-3.357,7.5-7.5s-3.358-7.5-7.5-7.5h-2.835l-5.77-23.081
	c-1.076-4.303-0.127-8.775,2.603-12.271c2.73-3.497,6.84-5.502,11.275-5.502s8.545,2.005,11.275,5.502
	c2.729,3.496,3.678,7.969,2.603,12.271l-7.19,28.762c-0.01,0.041-0.015,0.082-0.024,0.123c-0.033,0.143-0.061,0.288-0.086,0.435
	c-0.02,0.115-0.038,0.229-0.052,0.343c-0.014,0.118-0.025,0.237-0.033,0.356c-0.011,0.145-0.019,0.289-0.022,0.433
	c-0.001,0.043-0.006,0.085-0.006,0.129c0,0.057,0.007,0.112,0.008,0.168c0.003,0.154,0.01,0.308,0.023,0.461
	c0.009,0.102,0.02,0.204,0.032,0.305c0.017,0.139,0.038,0.276,0.063,0.413c0.021,0.115,0.045,0.229,0.071,0.342
	c0.027,0.118,0.057,0.234,0.09,0.35c0.036,0.126,0.074,0.251,0.116,0.375c0.034,0.1,0.071,0.2,0.109,0.298
	c0.051,0.13,0.104,0.259,0.162,0.385c0.042,0.091,0.085,0.181,0.13,0.271c0.063,0.125,0.128,0.248,0.198,0.369
	c0.052,0.09,0.106,0.178,0.162,0.266c0.071,0.112,0.143,0.222,0.22,0.329c0.066,0.094,0.136,0.185,0.206,0.276
	c0.074,0.094,0.148,0.187,0.226,0.278c0.083,0.097,0.169,0.19,0.257,0.283c0.075,0.078,0.15,0.156,0.228,0.231
	c0.098,0.094,0.198,0.185,0.301,0.274c0.079,0.068,0.158,0.135,0.24,0.199c0.107,0.085,0.216,0.166,0.328,0.245
	c0.088,0.063,0.177,0.123,0.268,0.182c0.108,0.07,0.219,0.137,0.331,0.201c0.106,0.061,0.213,0.119,0.321,0.174
	c0.103,0.052,0.207,0.103,0.312,0.15c0.127,0.058,0.255,0.111,0.386,0.161c0.096,0.037,0.192,0.073,0.29,0.106
	c0.144,0.049,0.289,0.093,0.437,0.133c0.055,0.015,0.108,0.036,0.164,0.05c0.036,0.009,0.072,0.012,0.108,0.02
	c0.207,0.048,0.417,0.086,0.631,0.117c0.08,0.012,0.16,0.028,0.24,0.037c0.227,0.025,0.458,0.038,0.691,0.042
	c0.051,0.001,0.103,0.01,0.154,0.01c0.008,0,0.015-0.002,0.023-0.002h25.651L279.945,197.397z M237.9,15
	c13.817,0,32.716,29.357,44.451,54.818h-88.907C205.166,44.357,224.06,15,237.9,15z M173.906,460.801l0.823-9.878l123.548-33.535
	l3.618,43.413H173.906z"/>
<g>
</g>
<g>
</g>
<g>
</g>
<g>
</g>
<g>
</g>
<g>
</g>
<g>
</g>
<g>
</g>
<g>
</g>
<g>
</g>
<g>
</g>
<g>
</g>
<g>
</g>
<g>
</g>
<g>
</g>
</svg>
