<?xml version="1.0" encoding="iso-8859-1"?>
<!-- Generator: Adobe Illustrator 17.1.0, SVG Export Plug-In . SVG Version: 6.00 Build 0)  -->
<!DOCTYPE svg PUBLIC "-//W3C//DTD SVG 1.1//EN" "http://www.w3.org/Graphics/SVG/1.1/DTD/svg11.dtd">
<svg version="1.1" id="Capa_1" xmlns="http://www.w3.org/2000/svg" xmlns:xlink="http://www.w3.org/1999/xlink" x="0px" y="0px"
	 viewBox="0 0 475.801 475.801" style="enable-background:new 0 0 475.801 475.801;" xml:space="preserve">
<path d="M468.3,0H7.5C3.358,0,0,3.357,0,7.5v460.801c0,4.143,3.358,7.5,7.5,7.5h460.8c4.142,0,7.5-3.357,7.5-7.5V7.5
	C475.8,3.357,472.442,0,468.3,0z M150.646,85.893v276.069c0,4.143,3.358,7.5,7.5,7.5s7.5-3.357,7.5-7.5V85.893H230.4v276.069
	c0,4.143,3.358,7.5,7.5,7.5s7.5-3.357,7.5-7.5V85.893h64.754v276.069c0,4.143,3.358,7.5,7.5,7.5s7.5-3.357,7.5-7.5V85.893h64.754
	v304.481H85.893V85.893H150.646z M70.893,390.374H15V85.893h55.892V390.374z M460.8,460.801H15v-55.427h427.7
	c4.142,0,7.5-3.357,7.5-7.5s-3.358-7.5-7.5-7.5h-37.792V85.893H442.7c4.142,0,7.5-3.357,7.5-7.5s-3.358-7.5-7.5-7.5H15V15h445.8
	V460.801z"/>
<g>
</g>
<g>
</g>
<g>
</g>
<g>
</g>
<g>
</g>
<g>
</g>
<g>
</g>
<g>
</g>
<g>
</g>
<g>
</g>
<g>
</g>
<g>
</g>
<g>
</g>
<g>
</g>
<g>
</g>
</svg>
