<?xml version="1.0" encoding="iso-8859-1"?>
<!-- Generator: Adobe Illustrator 17.1.0, SVG Export Plug-In . SVG Version: 6.00 Build 0)  -->
<!DOCTYPE svg PUBLIC "-//W3C//DTD SVG 1.1//EN" "http://www.w3.org/Graphics/SVG/1.1/DTD/svg11.dtd">
<svg version="1.1" id="Capa_1" xmlns="http://www.w3.org/2000/svg" xmlns:xlink="http://www.w3.org/1999/xlink" x="0px" y="0px"
	 viewBox="0 0 460.8 460.8" style="enable-background:new 0 0 460.8 460.8;" xml:space="preserve">
<path d="M448.673,218.273c-3.863,0-7.297,1.813-9.518,4.627H391.32c-1.786-38.775-17.339-74.017-41.879-100.934l33.875-33.875
	c3.56,0.42,7.27-0.727,10.002-3.458c4.736-4.736,4.736-12.414,0-17.15s-12.414-4.736-17.15,0c-2.732,2.732-3.878,6.441-3.458,10.002
	l-33.875,33.875C311.917,86.819,276.675,71.266,237.9,69.48V21.644c2.814-2.221,4.627-5.654,4.627-9.518
	C242.527,5.429,237.097,0,230.4,0c-6.697,0-12.127,5.429-12.127,12.127c0,3.863,1.813,7.297,4.627,9.518V69.48
	c-38.775,1.786-74.017,17.339-100.934,41.879L88.091,77.484c0.42-3.561-0.727-7.27-3.458-10.002c-4.736-4.736-12.414-4.736-17.15,0
	c-4.736,4.736-4.736,12.414,0,17.15c2.732,2.732,6.441,3.878,10.002,3.458l33.875,33.875C86.819,148.883,71.266,184.125,69.48,222.9
	H21.644c-2.221-2.814-5.654-4.627-9.518-4.627C5.429,218.273,0,223.702,0,230.4s5.429,12.127,12.127,12.127
	c3.863,0,7.297-1.813,9.518-4.627H69.48c1.786,38.775,17.339,74.017,41.879,100.934l-33.875,33.875
	c-3.56-0.42-7.27,0.727-10.002,3.458c-4.736,4.736-4.736,12.414,0,17.15c4.736,4.736,12.414,4.736,17.15,0
	c2.732-2.732,3.878-6.441,3.458-10.002l33.875-33.875c26.917,24.541,62.159,40.093,100.934,41.879v47.836
	c-2.814,2.221-4.627,5.654-4.627,9.518c0,6.698,5.429,12.127,12.127,12.127c6.698,0,12.127-5.429,12.127-12.127
	c0-3.863-1.813-7.297-4.627-9.518V391.32c38.775-1.786,74.017-17.339,100.934-41.879l33.875,33.875
	c-0.42,3.561,0.727,7.27,3.458,10.002c4.736,4.736,12.414,4.736,17.15,0s4.736-12.414,0-17.15
	c-2.732-2.732-6.441-3.878-10.002-3.458l-33.875-33.875c24.541-26.917,40.093-62.159,41.879-100.934h47.836
	c2.221,2.814,5.654,4.627,9.518,4.627c6.698,0,12.127-5.429,12.127-12.127S455.371,218.273,448.673,218.273z M376.31,222.9h-23.455
	c-1.322-21.894-8.402-42.885-20.714-61.108c-2.319-3.431-6.98-4.333-10.414-2.016c-3.432,2.319-4.335,6.981-2.016,10.414
	c10.63,15.734,16.823,33.823,18.123,52.71h-62.157c-1.168-7.072-3.958-13.6-7.975-19.196l71.122-71.123
	C360.663,156.764,374.55,188.257,376.31,222.9z M261.3,230.4c0,17.038-13.862,30.9-30.9,30.9s-30.9-13.862-30.9-30.9
	c0-17.036,13.858-30.896,30.893-30.9c0.002,0,0.004,0,0.006,0s0.004,0,0.006,0C247.442,199.504,261.3,213.364,261.3,230.4z
	 M222.9,185.123c-7.072,1.168-13.6,3.958-19.196,7.975l-43.936-43.936c17.155-14.935,39.069-24.533,63.132-26.197V185.123z
	 M193.098,203.704c-4.016,5.596-6.807,12.124-7.975,19.196h-62.158c1.663-24.063,11.262-45.976,26.197-63.132L193.098,203.704z
	 M185.123,237.9c1.168,7.072,3.958,13.6,7.975,19.196l-43.936,43.936c-14.935-17.155-24.533-39.069-26.197-63.132H185.123z
	 M203.704,267.702c5.596,4.016,12.124,6.807,19.196,7.975v62.158c-24.063-1.663-45.976-11.262-63.132-26.197L203.704,267.702z
	 M237.9,275.677c7.072-1.168,13.6-3.958,19.196-7.975l43.936,43.936c-17.155,14.935-39.069,24.533-63.132,26.197V275.677z
	 M267.702,257.096c4.016-5.596,6.807-12.124,7.975-19.196h62.158c-1.663,24.063-11.262,45.976-26.197,63.132L267.702,257.096z
	 M328.218,121.975l-71.122,71.123c-5.596-4.016-12.124-6.807-19.196-7.975v-62.158c18.729,1.29,36.686,7.396,52.329,17.867
	c3.442,2.305,8.101,1.382,10.404-2.061c2.304-3.442,1.382-8.1-2.061-10.404c-18.12-12.13-38.959-19.11-60.673-20.422V84.49
	C272.543,86.25,304.036,100.137,328.218,121.975z M222.9,84.49v23.446c-28.194,1.709-53.846,12.979-73.751,30.606l-16.567-16.567
	C156.764,100.137,188.257,86.25,222.9,84.49z M121.975,132.582l16.567,16.567c-17.627,19.906-28.898,45.557-30.606,73.751H84.49
	C86.25,188.257,100.137,156.764,121.975,132.582z M84.49,237.9h23.446c1.709,28.194,12.979,53.846,30.606,73.751l-16.567,16.567
	C100.137,304.036,86.25,272.543,84.49,237.9z M132.582,338.825l16.567-16.567c19.905,17.627,45.557,28.897,73.751,30.606v23.446
	C188.257,374.55,156.764,360.663,132.582,338.825z M237.9,376.31v-23.446c28.194-1.709,53.846-12.979,73.751-30.606l16.567,16.567
	C304.036,360.663,272.543,374.55,237.9,376.31z M338.825,328.218l-16.567-16.567c17.627-19.906,28.898-45.557,30.606-73.751h23.446
	C374.55,272.543,360.663,304.036,338.825,328.218z"/>
<g>
</g>
<g>
</g>
<g>
</g>
<g>
</g>
<g>
</g>
<g>
</g>
<g>
</g>
<g>
</g>
<g>
</g>
<g>
</g>
<g>
</g>
<g>
</g>
<g>
</g>
<g>
</g>
<g>
</g>
</svg>
