<?xml version="1.0" encoding="iso-8859-1"?>
<!-- Generator: Adobe Illustrator 17.1.0, SVG Export Plug-In . SVG Version: 6.00 Build 0)  -->
<!DOCTYPE svg PUBLIC "-//W3C//DTD SVG 1.1//EN" "http://www.w3.org/Graphics/SVG/1.1/DTD/svg11.dtd">
<svg version="1.1" id="Capa_1" xmlns="http://www.w3.org/2000/svg" xmlns:xlink="http://www.w3.org/1999/xlink" x="0px" y="0px"
	 viewBox="0 0 475.801 475.801" style="enable-background:new 0 0 475.801 475.801;" xml:space="preserve">
<path d="M433.392,125.673h-37.553c-17.189-34.969-45.651-63.431-80.62-80.619V7.5c0-4.143-3.357-7.5-7.5-7.5H168.082
	c-4.143,0-7.5,3.357-7.5,7.5v37.554c-34.969,17.189-63.43,45.65-80.619,80.619H42.409c-4.143,0-7.5,3.357-7.5,7.5V272.81
	c0,4.143,3.357,7.5,7.5,7.5h37.554c12.342,25.109,30.489,46.87,52.692,63.505v32.849c0,7.896-6.423,14.318-14.318,14.318h-48
	c-3.042,0-5.782,1.837-6.938,4.65s-0.498,6.047,1.666,8.185c0.748,0.739,18.68,18.318,48.92,36.045
	c27.97,16.395,72.172,35.938,123.915,35.938c52.18,0,96.362-19.547,124.239-35.944c30.15-17.736,47.888-35.33,48.628-36.07
	c2.145-2.146,2.786-5.371,1.625-8.174c-1.16-2.803-3.896-4.63-6.929-4.63h-48c-7.896,0-14.318-6.423-14.318-14.318v-32.772
	c22.595-16.908,40.51-38.817,52.644-63.582h37.602c4.143,0,7.5-3.357,7.5-7.5V133.173
	C440.892,129.03,437.534,125.673,433.392,125.673z M175.582,15h124.637v23.535c-19.381-7.369-40.384-11.417-62.318-11.417
	c-21.934,0-42.938,4.048-62.318,11.417V15z M49.909,265.31V140.673h23.535c-7.369,19.381-11.417,40.384-11.417,62.318
	c0,21.934,4.048,42.938,11.417,62.318H49.909z M331.288,334c-0.037,0.027-0.07,0.058-0.107,0.085
	c-0.146,0.108-0.289,0.22-0.427,0.339c-0.065,0.056-0.127,0.115-0.19,0.173c-0.114,0.105-0.225,0.211-0.333,0.323
	c-0.071,0.074-0.138,0.15-0.206,0.226c-0.092,0.105-0.183,0.21-0.269,0.32c-0.066,0.084-0.129,0.169-0.191,0.256
	c-0.081,0.112-0.159,0.225-0.234,0.342c-0.054,0.085-0.106,0.172-0.157,0.259c-0.074,0.126-0.144,0.254-0.211,0.384
	c-0.041,0.081-0.079,0.162-0.117,0.243c-0.066,0.141-0.127,0.284-0.184,0.429c-0.03,0.077-0.058,0.155-0.085,0.232
	c-0.053,0.151-0.103,0.303-0.146,0.458c-0.023,0.08-0.042,0.161-0.062,0.242c-0.037,0.151-0.071,0.302-0.099,0.457
	c-0.017,0.096-0.03,0.192-0.044,0.289c-0.02,0.139-0.038,0.278-0.05,0.419c-0.01,0.122-0.014,0.244-0.018,0.366
	c-0.003,0.087-0.013,0.172-0.013,0.26v36.563c0,16.166,13.152,29.318,29.318,29.318h27.752
	c-25.043,19.607-79.467,54.818-147.315,54.818c-48.208,0-89.663-18.303-115.95-33.657c-12.866-7.515-23.465-15.08-31.265-21.161
	h27.651c16.166,0,29.318-13.152,29.318-29.318V353.89c26.4,15.849,57.275,24.976,90.245,24.976c20.006,0,39.636-3.335,58.345-9.912
	c3.908-1.373,5.962-5.655,4.588-9.563c-1.373-3.908-5.658-5.962-9.563-4.588c-17.106,6.014-35.063,9.063-53.37,9.063
	c-88.706,0-160.873-72.168-160.873-160.874S149.194,42.118,237.9,42.118s160.874,72.167,160.874,160.873
	C398.774,254.846,373.546,303.821,331.288,334z M425.892,265.31h-23.588c7.477-19.682,11.471-40.771,11.471-62.318
	c0-21.934-4.048-42.938-11.417-62.318h23.534V265.31z M237.9,69.818c-61.168,0-112.829,41.457-128.381,97.746H93.536
	c-4.143,0-7.5,3.357-7.5,7.5s3.357,7.5,7.5,7.5h12.757c-1.03,6.661-1.566,13.482-1.566,20.427c0,6.945,0.536,13.767,1.566,20.428
	H93.536c-4.143,0-7.5,3.357-7.5,7.5s3.357,7.5,7.5,7.5h15.984c15.552,56.289,67.212,97.745,128.38,97.745
	c73.432,0,133.173-59.741,133.173-133.173S311.332,69.818,237.9,69.818z M237.9,321.164c-65.161,0-118.173-53.012-118.173-118.173
	S172.739,84.818,237.9,84.818s118.173,53.012,118.173,118.173S303.062,321.164,237.9,321.164z M237.9,114.88
	c-48.585,0-88.111,39.526-88.111,88.111c0,13.926,3.252,27.104,9.029,38.824c0.154,0.394,0.346,0.775,0.569,1.144
	c14.593,28.551,44.307,48.144,78.513,48.144c48.585,0,88.111-39.526,88.111-88.111S286.485,114.88,237.9,114.88z M237.9,276.103
	c-12.747,0-24.738-3.287-35.183-9.046l84.598-84.598c2.929-2.93,2.929-7.678,0-10.607c-2.93-2.928-7.678-2.928-10.607,0
	l-86.491,86.491c-5.944-5.128-11.06-11.185-15.109-17.957l85.708-85.708c2.929-2.93,2.929-7.678,0-10.607
	c-2.93-2.928-7.678-2.928-10.607,0l-81.75,81.75c-2.369-7.188-3.67-14.858-3.67-22.829c0-40.313,32.798-73.111,73.111-73.111
	s73.111,32.798,73.111,73.111S278.214,276.103,237.9,276.103z M228.888,98.552c0-4.978,4.035-9.012,9.012-9.012
	c4.977,0,9.012,4.035,9.012,9.012c0,4.977-4.035,9.012-9.012,9.012C232.923,107.564,228.888,103.53,228.888,98.552z M246.913,307.43
	c0,4.977-4.035,9.012-9.012,9.012c-4.977,0-9.012-4.035-9.012-9.012s4.035-9.012,9.012-9.012
	C242.878,298.418,246.913,302.453,246.913,307.43z M305.377,135.514c-3.52-3.52-3.52-9.226,0-12.745s9.226-3.52,12.745,0
	s3.52,9.226,0,12.745S308.897,139.034,305.377,135.514z M170.423,270.468c3.52,3.52,3.52,9.226,0,12.745
	c-3.519,3.52-9.226,3.52-12.745,0c-3.52-3.52-3.52-9.226,0-12.745C161.198,266.949,166.904,266.949,170.423,270.468z
	 M351.352,202.991c0,4.978-4.035,9.012-9.012,9.012s-9.012-4.035-9.012-9.012c0-4.977,4.035-9.012,9.012-9.012
	S351.352,198.014,351.352,202.991z M142.474,202.991c0,4.978-4.035,9.012-9.012,9.012c-4.977,0-9.012-4.035-9.012-9.012
	c0-4.977,4.035-9.012,9.012-9.012C138.439,193.979,142.474,198.014,142.474,202.991z M318.123,270.468
	c3.52,3.52,3.52,9.226,0,12.745s-9.226,3.52-12.745,0s-3.52-9.226,0-12.745S314.603,266.949,318.123,270.468z M157.678,135.514
	c-3.52-3.52-3.52-9.226,0-12.745c3.519-3.52,9.226-3.52,12.745,0c3.52,3.52,3.52,9.226,0,12.745
	C166.904,139.034,161.198,139.034,157.678,135.514z"/>
<g>
</g>
<g>
</g>
<g>
</g>
<g>
</g>
<g>
</g>
<g>
</g>
<g>
</g>
<g>
</g>
<g>
</g>
<g>
</g>
<g>
</g>
<g>
</g>
<g>
</g>
<g>
</g>
<g>
</g>
</svg>
