<?xml version="1.0" encoding="iso-8859-1"?>
<!-- Generator: Adobe Illustrator 17.1.0, SVG Export Plug-In . SVG Version: 6.00 Build 0)  -->
<!DOCTYPE svg PUBLIC "-//W3C//DTD SVG 1.1//EN" "http://www.w3.org/Graphics/SVG/1.1/DTD/svg11.dtd">
<svg version="1.1" id="Capa_1" xmlns="http://www.w3.org/2000/svg" xmlns:xlink="http://www.w3.org/1999/xlink" x="0px" y="0px"
	 viewBox="0 0 474.9 474.9" style="enable-background:new 0 0 474.9 474.9;" xml:space="preserve">
<path d="M419.28,278.353l-29.118-14.559c-3.269-1.635-6.928-2.499-10.582-2.499c-4.398,0-8.7,1.222-12.442,3.534
	c-7.027,4.343-11.222,11.868-11.222,20.129v95.017c0,26.246-21.353,47.599-47.599,47.599c-23.504,0-43.6-17.372-47.06-40.534
	c0.176-2.377,0.266-4.75,0.266-7.064V110.878C281.9,101.427,295.2,80.963,295.2,58.146C295.2,26.084,269.116,0,237.055,0
	S178.91,26.084,178.91,58.146c0,0.832,0.023,1.659,0.058,2.485c0.009,0.213,0.024,0.426,0.035,0.638
	c0.035,0.651,0.08,1.299,0.136,1.945c0.016,0.176,0.031,0.351,0.049,0.526c2.003,20.818,15.069,38.98,34.204,47.504v268.731
	c0,2.315,0.089,4.688,0.266,7.064c-3.459,23.162-23.556,40.534-47.059,40.534c-26.246,0-47.599-21.353-47.599-47.599v-95.017
	c0-8.261-4.195-15.786-11.223-20.129c-3.741-2.312-8.043-3.534-12.441-3.534c-3.654,0-7.313,0.864-10.582,2.499l-29.118,14.559
	c-5.653,2.827-9.868,7.686-11.867,13.682c-1.999,5.996-1.543,12.412,1.284,18.065c4.035,8.071,12.15,13.085,21.178,13.085
	c1.853,0,3.671-0.212,5.442-0.632v57.423c0,52.342,42.583,94.926,94.926,94.926c27.09,0,52.93-11.748,70.859-31.834
	c17.93,20.087,43.77,31.834,70.86,31.834c52.342,0,94.925-42.583,94.925-94.926v-57.432c1.784,0.424,3.615,0.642,5.442,0.642
	c0,0,0,0,0,0c9.027,0,17.143-5.014,21.178-13.084C435.697,298.429,430.95,284.188,419.28,278.353z M416.446,303.392
	c-1.478,2.956-4.452,4.792-7.761,4.792c-1.345,0-2.644-0.309-3.862-0.918l-5.727-2.863c-2.324-1.162-5.086-1.037-7.297,0.328
	c-2.211,1.367-3.557,3.781-3.557,6.38v68.863c0,44.071-35.854,79.926-79.925,79.926c-25.528,0-49.747-12.403-64.784-33.179
	c-1.411-1.949-3.67-3.103-6.076-3.103c-2.406,0-4.665,1.154-6.076,3.103c-15.037,20.775-39.255,33.179-64.784,33.179
	c-44.071,0-79.926-35.854-79.926-79.926v-68.863c0-2.599-1.346-5.013-3.557-6.38c-2.21-1.366-4.972-1.491-7.297-0.328l-5.726,2.863
	c-1.218,0.609-2.518,0.918-3.862,0.918c-3.31,0-6.284-1.836-7.762-4.792c-1.035-2.07-1.202-4.418-0.47-6.614
	c0.731-2.195,2.274-3.974,4.344-5.009l29.119-14.56c2.637-1.32,5.92-1.171,8.429,0.379c2.573,1.59,4.108,4.345,4.108,7.369v95.017
	c0,34.517,28.082,62.599,62.599,62.599c31.248,0,57.917-23.35,62.035-54.313c0.071-0.533,0.084-1.073,0.04-1.609
	c-0.187-2.251-0.281-4.498-0.281-6.677V115.637c0.138,0.021,0.274,0.049,0.412,0.069c0.359,0.051,0.717,0.076,1.069,0.076
	c3.673,0,6.881-2.7,7.416-6.441c0.585-4.101-2.264-7.899-6.365-8.485c-2.594-0.37-5.108-0.975-7.526-1.786
	c-0.037-0.013-0.07-0.033-0.107-0.046c-1.045-0.353-2.068-0.745-3.07-1.171c-0.069-0.029-0.138-0.056-0.206-0.086
	c-0.333-0.143-0.661-0.296-0.989-0.447c-0.283-0.131-0.568-0.262-0.848-0.399c-0.175-0.085-0.348-0.174-0.521-0.261
	c-0.476-0.242-0.95-0.487-1.416-0.746c-0.002-0.001-0.003-0.002-0.005-0.003c-11.669-6.486-19.967-18.219-21.896-31.732
	c-0.011-0.081-0.023-0.162-0.034-0.243c-0.07-0.514-0.129-1.031-0.18-1.55c-0.014-0.145-0.03-0.289-0.043-0.434
	c-0.043-0.477-0.074-0.957-0.1-1.438c-0.009-0.161-0.022-0.321-0.029-0.482c-0.028-0.626-0.044-1.255-0.044-1.887
	C193.91,34.355,213.265,15,237.055,15S280.2,34.355,280.2,58.146c0,18.515-11.808,34.943-29.382,40.879
	c-3.479,1.175-5.596,4.697-5.001,8.322c0.127,0.771,0.369,1.499,0.706,2.167v270.462c0,2.179-0.095,4.426-0.281,6.677
	c-0.044,0.536-0.031,1.076,0.04,1.609c4.118,30.963,30.787,54.313,62.036,54.313c34.517,0,62.599-28.082,62.599-62.599v-95.017
	c0-3.024,1.536-5.779,4.108-7.369c2.508-1.549,5.791-1.699,8.429-0.379l29.118,14.559
	C416.844,293.905,418.582,299.119,416.446,303.392z M262.873,58.146c0-14.236-11.582-25.818-25.818-25.818
	s-25.818,11.582-25.818,25.818s11.582,25.818,25.818,25.818S262.873,72.382,262.873,58.146z M237.055,68.964
	c-5.965,0-10.818-4.853-10.818-10.818s4.853-10.818,10.818-10.818s10.818,4.853,10.818,10.818S243.02,68.964,237.055,68.964z"/>
<g>
</g>
<g>
</g>
<g>
</g>
<g>
</g>
<g>
</g>
<g>
</g>
<g>
</g>
<g>
</g>
<g>
</g>
<g>
</g>
<g>
</g>
<g>
</g>
<g>
</g>
<g>
</g>
<g>
</g>
</svg>
