<?xml version="1.0" encoding="iso-8859-1"?>
<!-- Generator: Adobe Illustrator 17.1.0, SVG Export Plug-In . SVG Version: 6.00 Build 0)  -->
<!DOCTYPE svg PUBLIC "-//W3C//DTD SVG 1.1//EN" "http://www.w3.org/Graphics/SVG/1.1/DTD/svg11.dtd">
<svg version="1.1" id="Capa_1" xmlns="http://www.w3.org/2000/svg" xmlns:xlink="http://www.w3.org/1999/xlink" x="0px" y="0px"
	 viewBox="0 0 473.922 473.922" style="enable-background:new 0 0 473.922 473.922;" xml:space="preserve">
<path d="M413.741,167.033c-39.602-21.229-89.066-32.921-139.283-32.921c-62.72,0-100.973,18.196-122.02,33.46
	c-23.575,17.099-38.091,39.306-40.749,61.889H49.215C30.349,229.461,15,214.112,15,195.246s15.349-34.215,34.215-34.215h27.81
	c3.034,0,5.768-1.827,6.929-4.63c1.161-2.803,0.519-6.028-1.626-8.173l-27.81-27.81c-2.928-2.929-7.677-2.929-10.606,0
	c-2.929,2.929-2.929,7.678,0,10.606l15.006,15.007h-9.703C22.078,146.031,0,168.109,0,195.246c0,17.567,9.259,33.005,23.146,41.715
	C9.259,245.671,0,261.108,0,278.676c0,27.137,22.078,49.215,49.215,49.215h9.703l-15.006,15.007c-2.929,2.929-2.929,7.678,0,10.606
	c1.464,1.464,3.384,2.197,5.303,2.197s3.839-0.732,5.303-2.197l27.81-27.81c2.145-2.145,2.787-5.371,1.626-8.173
	c-1.161-2.803-3.896-4.63-6.929-4.63h-27.81C30.349,312.891,15,297.542,15,278.676s15.349-34.215,34.215-34.215h62.474
	c2.659,22.583,17.174,44.791,40.749,61.889c21.047,15.264,59.3,33.46,122.02,33.46c50.216,0,99.681-11.692,139.283-32.921
	c37.684-20.202,60.181-46.343,60.181-69.928S451.424,187.235,413.741,167.033z M274.458,324.81
	c-58.697,0-93.964-16.642-113.213-30.603c-21.919-15.897-35.005-37.298-35.005-57.246s13.086-41.349,35.005-57.246
	c12.541-9.095,31.888-19.325,60.076-25.354c-15.298,48.836-17.729,100.818-6.973,150.965c0.755,3.52,3.865,5.929,7.326,5.929
	c0.521,0,1.05-0.055,1.58-0.168c4.05-0.869,6.629-4.856,5.76-8.906c-10.756-50.15-7.618-102.231,9.051-150.72
	c10.988-1.486,23.081-2.349,36.392-2.349c0.192,0,0.382,0.004,0.574,0.005c-16.804,50.348-19.814,104.263-8.672,156.21
	c0.755,3.52,3.865,5.929,7.326,5.929c0.521,0,1.05-0.055,1.58-0.168c4.05-0.869,6.629-4.856,5.76-8.906
	c-10.857-50.622-7.566-103.213,9.517-152.089c0.063-0.182,0.112-0.365,0.161-0.548c12.08,0.633,23.762,1.95,34.953,3.844
	c-15.572,49.119-18.112,101.458-7.285,151.938c0.755,3.52,3.865,5.929,7.326,5.929c0.521,0,1.05-0.055,1.58-0.168
	c4.05-0.869,6.629-4.856,5.76-8.906c-10.4-48.49-7.81-98.785,7.441-145.893c70.655,15.697,118.444,53.833,118.444,80.672
	C458.922,271.518,379.71,324.81,274.458,324.81z M396.897,209.656c-15.056,0-27.305,12.249-27.305,27.305
	s12.249,27.305,27.305,27.305s27.305-12.249,27.305-27.305S411.953,209.656,396.897,209.656z M396.897,249.266
	c-6.785,0-12.305-5.52-12.305-12.305s5.52-12.305,12.305-12.305s12.305,5.52,12.305,12.305S403.682,249.266,396.897,249.266z"/>
<g>
</g>
<g>
</g>
<g>
</g>
<g>
</g>
<g>
</g>
<g>
</g>
<g>
</g>
<g>
</g>
<g>
</g>
<g>
</g>
<g>
</g>
<g>
</g>
<g>
</g>
<g>
</g>
<g>
</g>
</svg>
