<?xml version="1.0" encoding="iso-8859-1"?>
<!-- Generator: Adobe Illustrator 17.1.0, SVG Export Plug-In . SVG Version: 6.00 Build 0)  -->
<!DOCTYPE svg PUBLIC "-//W3C//DTD SVG 1.1//EN" "http://www.w3.org/Graphics/SVG/1.1/DTD/svg11.dtd">
<svg version="1.1" id="Capa_1" xmlns="http://www.w3.org/2000/svg" xmlns:xlink="http://www.w3.org/1999/xlink" x="0px" y="0px"
	 viewBox="0 0 475.801 475.801" style="enable-background:new 0 0 475.801 475.801;" xml:space="preserve">
<path d="M273.175,349.011c-4.143,0-7.5,3.357-7.5,7.5c0,14.585-11.865,26.45-26.45,26.45c-14.584,0-26.449-11.865-26.449-26.45
	c0-14.584,11.865-26.449,26.449-26.449c3.691,0,7.259,0.743,10.604,2.209c3.799,1.665,8.218-0.065,9.88-3.858
	c1.663-3.794-0.064-8.218-3.858-9.88c-5.255-2.303-10.849-3.471-16.625-3.471c-11.09,0-21.168,4.386-28.614,11.504
	c-1.36-1.377-3.247-2.231-5.335-2.231h-7.832V194.2h15.22c4.143,0,7.5-3.357,7.5-7.5s-3.357-7.5-7.5-7.5h-15.22v-61.8h15.22
	c4.143,0,7.5-3.357,7.5-7.5s-3.357-7.5-7.5-7.5h-15.22v-61.8h15.22c4.143,0,7.5-3.357,7.5-7.5s-3.357-7.5-7.5-7.5h-15.22V7.5
	c0-4.143-3.357-7.5-7.5-7.5s-7.5,3.357-7.5,7.5v316.834h-7.832c-4.143,0-7.5,3.357-7.5,7.5v136.207c0,4.278,3.481,7.76,7.76,7.76
	h30.145c4.278,0,7.76-3.481,7.76-7.76v-43.445c16.364-0.09,30.039-11.75,33.24-27.2c19.635-3.251,34.66-20.342,34.66-40.885
	C280.675,352.368,277.317,349.011,273.175,349.011z M197.775,460.801h-15.664V450.2h4.104c4.143,0,7.5-3.357,7.5-7.5
	s-3.357-7.5-7.5-7.5h-4.104v-95.866h15.664V460.801z M212.775,409.591v-21.193c5.052,4.198,11.114,7.215,17.76,8.639
	C227.866,404.299,220.933,409.51,212.775,409.591z M288.646,301.654c-11.053,0-20.044,8.991-20.044,20.044
	c0,1.754,0.249,3.446,0.674,5.068l-27.42,18.837c-0.845-0.203-1.723-0.323-2.631-0.323c-6.202,0-11.23,5.028-11.23,11.23
	c0,6.202,5.028,11.23,11.23,11.23c5.708,0,10.41-4.261,11.125-9.774l27.898-19.165c3.036,1.853,6.588,2.94,10.398,2.94
	c11.053,0,20.044-8.991,20.044-20.044S299.698,301.654,288.646,301.654z M288.646,326.742c-2.781,0-5.044-2.263-5.044-5.044
	s2.263-5.044,5.044-5.044s5.044,2.263,5.044,5.044S291.427,326.742,288.646,326.742z"/>
<g>
</g>
<g>
</g>
<g>
</g>
<g>
</g>
<g>
</g>
<g>
</g>
<g>
</g>
<g>
</g>
<g>
</g>
<g>
</g>
<g>
</g>
<g>
</g>
<g>
</g>
<g>
</g>
<g>
</g>
</svg>
