<?xml version="1.0" encoding="iso-8859-1"?>
<!-- Generator: Adobe Illustrator 17.1.0, SVG Export Plug-In . SVG Version: 6.00 Build 0)  -->
<!DOCTYPE svg PUBLIC "-//W3C//DTD SVG 1.1//EN" "http://www.w3.org/Graphics/SVG/1.1/DTD/svg11.dtd">
<svg version="1.1" id="Capa_1" xmlns="http://www.w3.org/2000/svg" xmlns:xlink="http://www.w3.org/1999/xlink" x="0px" y="0px"
	 viewBox="0 0 475.035 475.035" style="enable-background:new 0 0 475.035 475.035;" xml:space="preserve">
<path d="M474.745,246.278c0.018-0.064,0.033-0.128,0.05-0.192c0.061-0.237,0.11-0.474,0.148-0.714c0.01-0.067,0.022-0.133,0.031-0.2
	c0.076-0.591,0.081-1.184,0.017-1.771c-0.009-0.083-0.022-0.164-0.033-0.247c-0.032-0.225-0.074-0.448-0.126-0.668
	c-0.017-0.073-0.031-0.145-0.051-0.218c-0.077-0.288-0.169-0.572-0.28-0.849c-0.012-0.029-0.027-0.057-0.039-0.086
	c-0.105-0.254-0.227-0.502-0.361-0.745c-0.016-0.03-0.027-0.061-0.044-0.09c-0.017-0.03-0.039-0.055-0.056-0.085
	c-0.14-0.238-0.291-0.47-0.458-0.693c-0.018-0.024-0.034-0.05-0.052-0.074c-0.186-0.242-0.388-0.474-0.606-0.695
	c-0.041-0.042-0.085-0.079-0.127-0.12c-0.169-0.164-0.347-0.321-0.534-0.47c-0.075-0.06-0.151-0.118-0.228-0.175
	c-0.067-0.049-0.128-0.104-0.197-0.151l-140.419-96.799c-3.068-2.116-7.229-1.656-9.761,1.08l-23.036,24.886l-34.254-49.651
	c-1.4-2.029-3.708-3.241-6.174-3.241h-71.644c-11.193,0-20.3,9.106-20.3,20.301c0,11.193,9.106,20.3,20.3,20.3h47.17l33.385,46.339
	l-32.823,35.46h-47.922c-0.741,0-1.478,0.109-2.187,0.326L5.32,291.541c-0.365,0.111-0.715,0.254-1.054,0.417
	c-0.051,0.024-0.101,0.047-0.151,0.073c-0.318,0.161-0.623,0.342-0.912,0.545c-0.046,0.032-0.089,0.067-0.135,0.101
	c-0.271,0.199-0.53,0.414-0.772,0.647c-0.021,0.021-0.044,0.039-0.066,0.06c-0.249,0.246-0.476,0.513-0.689,0.792
	c-0.04,0.052-0.079,0.104-0.117,0.157c-0.206,0.284-0.394,0.581-0.559,0.894c-0.016,0.03-0.028,0.061-0.044,0.09
	c-0.155,0.303-0.288,0.619-0.401,0.945c-0.014,0.04-0.03,0.078-0.043,0.118c-0.11,0.335-0.194,0.68-0.256,1.034
	c-0.012,0.068-0.021,0.137-0.031,0.206C0.036,297.977,0,298.342,0,298.717v30.643c0,0.516,0.053,1.029,0.158,1.534
	c3.612,17.285,19.05,29.831,36.708,29.831H276.16c39.849,0,79.213-10.425,113.838-30.148c34.624-19.723,63.669-48.266,83.993-82.541
	c0.017-0.029,0.028-0.06,0.045-0.088C474.345,247.411,474.58,246.851,474.745,246.278z M181.211,134.611
	c0-2.923,2.378-5.301,5.3-5.301s5.3,2.378,5.3,5.301c0,2.922-2.378,5.3-5.3,5.3S181.211,137.533,181.211,134.611z M243.605,143.027
	c-1.409-1.957-3.674-3.116-6.085-3.116h-31.436c0.459-1.693,0.726-3.464,0.726-5.3c0-1.836-0.267-3.608-0.726-5.301h48.132
	l33.923,49.172l-10.679,11.537L243.605,143.027z M276.16,345.724H36.866c-10.354,0-19.437-7.189-21.866-17.197v-22.311h350.521
	c4.143,0,7.5-3.357,7.5-7.5s-3.357-7.5-7.5-7.5H57.829l129.611-39.507h203.682c4.143,0,7.5-3.357,7.5-7.5s-3.357-7.5-7.5-7.5
	H254.683l73.53-79.438l115.233,79.438h-13.926c-4.143,0-7.5,3.357-7.5,7.5s3.357,7.5,7.5,7.5h24.359
	C414.117,310.018,347.209,345.724,276.16,345.724z"/>
<g>
</g>
<g>
</g>
<g>
</g>
<g>
</g>
<g>
</g>
<g>
</g>
<g>
</g>
<g>
</g>
<g>
</g>
<g>
</g>
<g>
</g>
<g>
</g>
<g>
</g>
<g>
</g>
<g>
</g>
</svg>
