<?xml version="1.0" encoding="iso-8859-1"?>
<!-- Generator: Adobe Illustrator 17.1.0, SVG Export Plug-In . SVG Version: 6.00 Build 0)  -->
<!DOCTYPE svg PUBLIC "-//W3C//DTD SVG 1.1//EN" "http://www.w3.org/Graphics/SVG/1.1/DTD/svg11.dtd">
<svg version="1.1" id="Capa_1" xmlns="http://www.w3.org/2000/svg" xmlns:xlink="http://www.w3.org/1999/xlink" x="0px" y="0px"
	 viewBox="0 0 475.72 475.72" style="enable-background:new 0 0 475.72 475.72;" xml:space="preserve">
<path d="M296.857,268.72h-18.182V77.305c0-45.988-57.478-75.287-59.924-76.513c-2.325-1.163-5.087-1.039-7.299,0.326
	c-2.212,1.366-3.559,3.781-3.559,6.381v71.169c0,8.026-3.118,15.58-8.78,21.27c-1.398,1.405-2.184,3.308-2.184,5.29V268.72h-18.067
	c-4.143,0-7.5,3.357-7.5,7.5s3.357,7.5,7.5,7.5h18.759c-2.363,13.954-6.411,42.302-6.411,72.811c0,32.204,6.242,63.942,9.438,78.083
	c-7.223,3.33-12.276,10.883-12.276,19.646c0,11.834,9.218,21.461,20.547,21.461h57.881c11.329,0,20.547-9.627,20.547-21.461
	c0-8.764-5.054-16.317-12.278-19.646c3.194-14.141,9.431-45.879,9.431-78.082c0-30.498-4.136-58.84-6.555-72.811h18.913
	c4.143,0,7.5-3.357,7.5-7.5S301,268.72,296.857,268.72z M222.894,78.669V20.644c15.147,9.929,40.781,30.584,40.781,56.661V268.72
	H245.36v-133.3c0-4.143-3.357-7.5-7.5-7.5s-7.5,3.357-7.5,7.5v133.3h-18.43V108.166C219.023,99.969,222.894,89.612,222.894,78.669z
	 M266.801,460.72H208.92c-3.059,0-5.547-2.898-5.547-6.461s2.488-6.461,5.547-6.461h0.808h35.982c4.143,0,7.5-3.357,7.5-7.5
	s-3.357-7.5-7.5-7.5h-30.076c-1.783-7.777-4.952-22.937-7.119-40.846h41.197c4.143,0,7.5-3.357,7.5-7.5s-3.357-7.5-7.5-7.5h-42.684
	c-0.51-6.69-0.817-13.563-0.817-20.422c0-6.947,0.226-13.811,0.599-20.423h44.798c4.143,0,7.5-3.357,7.5-7.5s-3.357-7.5-7.5-7.5
	h-43.683c1.503-16.417,3.642-30.011,4.931-37.388H262.7c2.189,12.248,6.8,41.727,6.8,72.811c0,40.374-10.653,81.452-10.761,81.862
	c-0.59,2.248-0.104,4.645,1.316,6.484c1.42,1.841,3.612,2.92,5.938,2.92h0.808c3.059,0,5.547,2.898,5.547,6.462
	C272.347,457.822,269.859,460.72,266.801,460.72z"/>
<g>
</g>
<g>
</g>
<g>
</g>
<g>
</g>
<g>
</g>
<g>
</g>
<g>
</g>
<g>
</g>
<g>
</g>
<g>
</g>
<g>
</g>
<g>
</g>
<g>
</g>
<g>
</g>
<g>
</g>
</svg>
