<?xml version="1.0" encoding="iso-8859-1"?>
<!-- Generator: Adobe Illustrator 17.1.0, SVG Export Plug-In . SVG Version: 6.00 Build 0)  -->
<!DOCTYPE svg PUBLIC "-//W3C//DTD SVG 1.1//EN" "http://www.w3.org/Graphics/SVG/1.1/DTD/svg11.dtd">
<svg version="1.1" id="Capa_1" xmlns="http://www.w3.org/2000/svg" xmlns:xlink="http://www.w3.org/1999/xlink" x="0px" y="0px"
	 viewBox="0 0 476.758 476.758" style="enable-background:new 0 0 476.758 476.758;" xml:space="preserve">
<path d="M470.791,174.563c-3-0.626-75.291-15.337-234.046-15.337c-158.831,0-228.058,15.512-230.927,16.172
	c-0.026,0.006-0.049,0.018-0.074,0.024c-0.366,0.088-0.725,0.204-1.076,0.347c-0.056,0.023-0.111,0.047-0.166,0.071
	c-0.345,0.15-0.682,0.323-1.005,0.527c-0.028,0.017-0.053,0.037-0.08,0.055c-0.298,0.194-0.583,0.411-0.855,0.651
	c-0.037,0.033-0.077,0.063-0.113,0.096c-0.21,0.192-0.414,0.395-0.606,0.615c-0.05,0.057-0.091,0.118-0.138,0.176
	c-0.049,0.059-0.095,0.119-0.141,0.18c-0.229,0.296-0.438,0.602-0.616,0.92c-0.005,0.009-0.009,0.019-0.014,0.028
	c-0.184,0.333-0.336,0.678-0.465,1.029c-0.017,0.045-0.036,0.089-0.051,0.134c-0.123,0.354-0.215,0.715-0.283,1.079
	c-0.012,0.063-0.022,0.126-0.032,0.189c-0.06,0.373-0.094,0.748-0.097,1.124c0,0.022-0.005,0.042-0.005,0.064
	c0,20.953,6.492,40.415,19.297,57.845c11.979,16.306,29.263,30.515,51.372,42.231c42.285,22.408,101.266,34.749,166.076,34.749
	c64.927,0,124.478-12.478,167.682-35.134c22.551-11.826,40.207-26.112,52.478-42.46c13.174-17.552,19.854-37.077,19.854-58.033
	C476.758,178.354,474.267,175.29,470.791,174.563z M397.46,269.114c-41.094,21.55-98.17,33.418-160.715,33.418
	c-120.708,0-207.756-42.117-220.207-104.228c9.348,5.906,23.499,13.744,42.844,21.572c34.683,14.035,93.606,30.765,177.363,30.765
	c83.76,0,142.683-16.73,177.363-30.765c3.84-1.554,5.692-5.926,4.139-9.766s-5.924-5.694-9.766-4.139
	c-33.446,13.535-90.391,29.669-171.736,29.669c-80.837,0-137.543-15.946-170.879-29.324c-17.406-6.985-30.409-14.008-39.236-19.426
	c29.493-4.603,97.265-12.665,210.115-12.665c131.312,0,204.097,10.414,224.778,13.9C458.433,228.727,425.393,254.466,397.46,269.114
	z M237.199,192.699c30.522,0,55.266,5.478,55.266,12.235c0,6.757-24.743,12.235-55.266,12.235c-30.522,0-55.266-5.478-55.266-12.235
	C181.933,198.177,206.677,192.699,237.199,192.699z"/>
<g>
</g>
<g>
</g>
<g>
</g>
<g>
</g>
<g>
</g>
<g>
</g>
<g>
</g>
<g>
</g>
<g>
</g>
<g>
</g>
<g>
</g>
<g>
</g>
<g>
</g>
<g>
</g>
<g>
</g>
</svg>
