<?xml version="1.0" encoding="iso-8859-1"?>
<!-- Generator: Adobe Illustrator 17.1.0, SVG Export Plug-In . SVG Version: 6.00 Build 0)  -->
<!DOCTYPE svg PUBLIC "-//W3C//DTD SVG 1.1//EN" "http://www.w3.org/Graphics/SVG/1.1/DTD/svg11.dtd">
<svg version="1.1" id="Capa_1" xmlns="http://www.w3.org/2000/svg" xmlns:xlink="http://www.w3.org/1999/xlink" x="0px" y="0px"
	 viewBox="0 0 475.8 475.8" style="enable-background:new 0 0 475.8 475.8;" xml:space="preserve">
<path d="M194.778,241.011l-54.415,121.523c-1.271,2.839-0.658,6.168,1.542,8.368c1.437,1.437,3.355,2.197,5.305,2.197
	c1.035,0,2.079-0.214,3.063-0.655l121.523-54.415c1.636-0.732,2.955-2.026,3.719-3.647l59.859-126.967
	c1.35-2.862,0.757-6.264-1.48-8.501c-2.237-2.238-5.639-2.831-8.501-1.48l-126.967,59.859
	C196.804,238.056,195.511,239.375,194.778,241.011z M207.3,249.752l55.756,55.756l-100.966,45.21L207.3,249.752z M245.4,74.17
	v-1.724c16.602-3.47,29.111-18.218,29.111-35.835C274.511,16.423,258.087,0,237.9,0s-36.611,16.423-36.611,36.611
	c0,17.617,12.509,32.365,29.111,35.835v1.724C123.09,78.13,37.008,166.647,37.008,274.908c0,110.772,90.12,200.892,200.892,200.892
	s200.892-90.12,200.892-200.892C438.792,166.647,352.71,78.13,245.4,74.17z M216.289,36.611C216.289,24.694,225.983,15,237.9,15
	s21.611,9.694,21.611,21.611c0,9.281-5.881,17.212-14.111,20.267v-5.712c0-4.142-3.358-7.5-7.5-7.5s-7.5,3.358-7.5,7.5v5.712
	C222.17,53.823,216.289,45.891,216.289,36.611z M237.9,460.8c-102.501,0-185.892-83.391-185.892-185.892
	S135.399,89.016,237.9,89.016s185.892,83.391,185.892,185.892S340.401,460.8,237.9,460.8z M397.784,274.992
	c0,0.097,0.004,0.193,0.004,0.29c-0.041,28.243-7.665,56.114-22.048,80.598c-29.507,50.232-82.402,78.393-136.813,78.838
	c-0.337,0.046-0.678,0.078-1.028,0.078c-0.327,0-0.648-0.028-0.964-0.069c-27.271-0.116-54.847-7.198-80.008-21.979
	c-50.248-29.518-78.417-82.424-78.844-136.854c-0.043-0.324-0.072-0.652-0.072-0.987c0-0.321,0.027-0.635,0.066-0.946
	c0.116-27.273,7.2-54.864,21.981-80.027c29.517-50.246,82.419-78.413,136.847-78.843c0.326-0.043,0.657-0.073,0.995-0.073
	c0.324,0,0.64,0.027,0.953,0.067c27.271,0.117,54.859,7.201,80.019,21.981c3.571,2.098,4.766,6.694,2.668,10.266
	c-2.098,3.571-6.693,4.768-10.266,2.668c-20.76-12.196-43.344-18.606-65.875-19.736v22.79c0,4.142-3.358,7.5-7.5,7.5
	s-7.5-3.358-7.5-7.5v-22.764c-46.962,2.508-91.856,27.745-117.408,71.243c-12.195,20.76-18.605,43.344-19.736,65.875h22.79
	c4.142,0,7.5,3.358,7.5,7.5s-3.358,7.5-7.5,7.5H93.283c2.508,46.962,27.745,91.856,71.243,117.408
	c20.399,11.983,42.905,18.66,65.875,19.824v-22.878c0-4.142,3.358-7.5,7.5-7.5s7.5,3.358,7.5,7.5v22.856
	c9.668-0.521,19.354-2.012,28.939-4.503c37.45-9.733,68.869-33.468,88.468-66.832c11.932-20.312,18.483-42.97,19.661-65.875h-22.715
	c-4.142,0-7.5-3.358-7.5-7.5s3.358-7.5,7.5-7.5h22.726c-1.121-21.894-7.162-43.594-18.151-63.271
	c-2.02-3.616-0.726-8.185,2.891-10.205c3.616-2.021,8.185-0.726,10.205,2.891c13.276,23.771,20.305,50.708,20.357,77.932
	c0.001,0.052,0.008,0.102,0.008,0.153C397.789,274.936,397.785,274.964,397.784,274.992z"/>
<g>
</g>
<g>
</g>
<g>
</g>
<g>
</g>
<g>
</g>
<g>
</g>
<g>
</g>
<g>
</g>
<g>
</g>
<g>
</g>
<g>
</g>
<g>
</g>
<g>
</g>
<g>
</g>
<g>
</g>
</svg>
