<?xml version="1.0" encoding="iso-8859-1"?>
<!-- Generator: Adobe Illustrator 17.1.0, SVG Export Plug-In . SVG Version: 6.00 Build 0)  -->
<!DOCTYPE svg PUBLIC "-//W3C//DTD SVG 1.1//EN" "http://www.w3.org/Graphics/SVG/1.1/DTD/svg11.dtd">
<svg version="1.1" id="Capa_1" xmlns="http://www.w3.org/2000/svg" xmlns:xlink="http://www.w3.org/1999/xlink" x="0px" y="0px"
	 viewBox="0 0 475.69 475.69" style="enable-background:new 0 0 475.69 475.69;" xml:space="preserve">
<path d="M329.076,121.614h-18.91h-37.333h-89.321h-37.333h-26.778c-31.198,0-56.58,25.381-56.58,56.58v54.428
	c0,31.198,25.381,56.58,56.58,56.58h26.778h37.333h89.321h37.333h18.91c46.204,0,83.793-37.59,83.793-83.794
	S375.28,121.614,329.076,121.614z M265.333,136.614v137.587h-74.321V136.614H265.333z M77.821,232.622v-54.428
	c0-22.927,18.652-41.58,41.58-41.58h19.278v137.587h-19.278C96.474,274.202,77.821,255.549,77.821,232.622z M153.679,274.202
	V136.614h22.333v137.587H153.679z M280.333,274.202V136.614h22.333v137.587H280.333z M329.076,274.202h-11.41V136.614h11.41
	c37.933,0,68.793,30.861,68.793,68.794C397.869,243.341,367.008,274.202,329.076,274.202z M332.963,88.739h-11.58H99.786H82.692
	c-22.177,0-42.972,8.536-58.555,24.036C8.572,128.257,0,148.882,0,170.851v123.002c0,0.089,0.001,0.179,0.005,0.268
	c0.419,39.365,29.022,72.999,67.455,79.928c5.084,7.761,13.852,12.902,23.802,12.902c9.382,0,17.715-4.569,22.898-11.597h205.489
	c5.183,7.027,13.516,11.597,22.898,11.597c11.268,0,21.027-6.587,25.628-16.112c29.612-7.631,56.386-24.843,75.733-48.789
	c20.495-25.366,31.782-57.33,31.782-90.003C475.69,153.027,411.663,88.739,332.963,88.739z M15,293.243V170.851
	c0-21.38,10.148-40.441,25.906-52.74c-2.62,3.5-4.961,7.265-6.974,11.276c-0.028,0.055-0.055,0.111-0.082,0.167l-1.643,3.486
	c-3.968,8.423-6.065,17.797-6.065,27.109v111.276c0,30.235,18.321,56.262,44.439,67.591c-4.596,4.873-7.491,11.36-7.735,18.513
	C34.954,349.172,15,323.18,15,293.243z M91.262,371.951c-7.411,0-13.44-6.029-13.44-13.44c0-4.636,2.36-8.731,5.94-11.148v1.322
	c0,4.142,3.358,7.5,7.5,7.5s7.5-3.358,7.5-7.5v-1.322c3.581,2.417,5.94,6.512,5.94,11.148
	C104.702,365.922,98.673,371.951,91.262,371.951z M119.636,360.354c0.039-0.61,0.066-1.224,0.066-1.844
	c0-4.859-1.227-9.435-3.384-13.44h201.173c-2.157,4.005-3.384,8.582-3.384,13.44c0,0.62,0.027,1.234,0.066,1.844H119.636z
	 M342.547,371.951c-7.411,0-13.44-6.029-13.44-13.44c0-4.636,2.36-8.731,5.94-11.148v1.322c0,4.142,3.358,7.5,7.5,7.5
	s7.5-3.358,7.5-7.5v-1.323c3.581,2.417,5.941,6.512,5.941,11.148C355.988,365.922,349.958,371.951,342.547,371.951z
	 M370.706,354.542c-0.886-6.313-3.848-11.968-8.176-16.247c50.549-17.18,87.019-65.106,87.019-121.391c0-4.142-3.358-7.5-7.5-7.5
	s-7.5,3.358-7.5,7.5c0,52.62-36.1,96.965-84.833,109.574c-0.944-3.062-3.795-5.288-7.168-5.288c-4.142,0-7.5,3.358-7.5,7.5v0.553
	c-4.481,0.542-9.04,0.827-13.665,0.827H99.786c-0.344,0-0.682-0.02-1.024-0.026v-1.354c0-4.142-3.358-7.5-7.5-7.5
	c-3.855,0-7.026,2.909-7.449,6.651c-24.595-6.974-42.671-29.616-42.671-56.415V160.15c0-7.116,1.603-14.28,4.635-20.716l1.601-3.398
	c10.037-19.924,30.11-32.297,52.408-32.297h221.597c45.586,0,86.516,27.13,104.275,69.118c1.613,3.815,6.015,5.598,9.83,3.986
	c3.815-1.614,5.599-6.014,3.986-9.829c-2.776-6.562-6.067-12.79-9.787-18.675c19.311,22.486,31.004,51.75,31.004,83.707
	C460.69,288.963,424.166,337.98,370.706,354.542z"/>
<g>
</g>
<g>
</g>
<g>
</g>
<g>
</g>
<g>
</g>
<g>
</g>
<g>
</g>
<g>
</g>
<g>
</g>
<g>
</g>
<g>
</g>
<g>
</g>
<g>
</g>
<g>
</g>
<g>
</g>
</svg>
