<?xml version="1.0" encoding="iso-8859-1"?>
<!-- Generator: Adobe Illustrator 17.1.0, SVG Export Plug-In . SVG Version: 6.00 Build 0)  -->
<!DOCTYPE svg PUBLIC "-//W3C//DTD SVG 1.1//EN" "http://www.w3.org/Graphics/SVG/1.1/DTD/svg11.dtd">
<svg version="1.1" id="Capa_1" xmlns="http://www.w3.org/2000/svg" xmlns:xlink="http://www.w3.org/1999/xlink" x="0px" y="0px"
	 viewBox="0 0 475.801 475.801" style="enable-background:new 0 0 475.801 475.801;" xml:space="preserve">
<path d="M365.9,358.4h-30.899V135.549c0-0.008,0-0.015,0-0.015V135.5c0-0.044-0.006-0.087-0.007-0.131
	c-0.003-0.202-0.011-0.404-0.031-0.605c-0.008-0.086-0.024-0.169-0.036-0.254c-0.021-0.158-0.041-0.316-0.072-0.474
	c-0.022-0.111-0.052-0.219-0.079-0.328c-0.031-0.127-0.06-0.254-0.098-0.38c-0.04-0.133-0.09-0.262-0.137-0.392
	c-0.036-0.098-0.068-0.198-0.108-0.295c-0.066-0.159-0.141-0.313-0.218-0.466c-0.033-0.066-0.061-0.133-0.096-0.198
	c-0.105-0.197-0.22-0.387-0.342-0.573c-0.014-0.021-0.024-0.043-0.038-0.063l-0.008-0.012c-0.008-0.012-0.016-0.024-0.025-0.037
	L283.801,56.43V45.9c0-25.31-20.591-45.9-45.9-45.9c-25.309,0-45.899,20.591-45.899,45.9V56.43l-49.908,74.861
	c-0.008,0.012-0.016,0.024-0.025,0.037l-0.008,0.012c-0.014,0.021-0.024,0.042-0.038,0.063c-0.121,0.186-0.237,0.376-0.342,0.573
	c-0.035,0.066-0.063,0.134-0.096,0.2c-0.076,0.153-0.151,0.305-0.217,0.464c-0.041,0.098-0.073,0.198-0.109,0.297
	c-0.047,0.129-0.096,0.258-0.136,0.39c-0.038,0.126-0.067,0.253-0.098,0.38c-0.027,0.109-0.057,0.217-0.079,0.328
	c-0.031,0.157-0.052,0.316-0.072,0.474c-0.011,0.085-0.027,0.168-0.036,0.254c-0.02,0.201-0.027,0.403-0.031,0.605
	c-0.001,0.044-0.007,0.086-0.007,0.131v0.026c0,0,0,0.015,0,0.023V358.4h-30.9c-4.143,0-7.5,3.357-7.5,7.5
	c0,28.613,16.271,56.466,45.818,78.427c26.514,19.708,60.04,31.474,89.682,31.474s63.168-11.766,89.682-31.474
	c29.547-21.961,45.818-49.813,45.818-78.427C373.4,361.758,370.043,358.4,365.9,358.4z M203.515,66.2h68.772l45.253,67.879
	L237.9,238.345L165.075,143h124.026c4.143,0,7.5-3.357,7.5-7.5s-3.357-7.5-7.5-7.5H162.314L203.515,66.2z M320.001,155.568v190.264
	L247.338,250.7L320.001,155.568z M228.463,250.7l-72.662,95.13V155.57L228.463,250.7z M237.9,263.056l72.826,95.345H165.075
	L237.9,263.056z M237.9,15c17.038,0,30.9,13.862,30.9,30.9v5.3h-61.8v-5.3C207.001,28.862,220.862,15,237.9,15z M237.9,460.801
	c-36.764,0-79.042-20.122-102.474-49h192.075c4.143,0,7.5-3.357,7.5-7.5s-3.357-7.5-7.5-7.5H125.452
	c-3.92-7.464-6.558-15.314-7.578-23.4h30.393c0.499,0.102,1.001,0.172,1.505,0.172c0.531,0,1.059-0.061,1.578-0.172h173.102
	c0.519,0.111,1.047,0.172,1.578,0.172c0.504,0,1.006-0.07,1.505-0.172h30.393C351.895,421.219,289.468,460.801,237.9,460.801z"/>
<g>
</g>
<g>
</g>
<g>
</g>
<g>
</g>
<g>
</g>
<g>
</g>
<g>
</g>
<g>
</g>
<g>
</g>
<g>
</g>
<g>
</g>
<g>
</g>
<g>
</g>
<g>
</g>
<g>
</g>
</svg>
