<?xml version="1.0" encoding="iso-8859-1"?>
<!-- Generator: Adobe Illustrator 17.1.0, SVG Export Plug-In . SVG Version: 6.00 Build 0)  -->
<!DOCTYPE svg PUBLIC "-//W3C//DTD SVG 1.1//EN" "http://www.w3.org/Graphics/SVG/1.1/DTD/svg11.dtd">
<svg version="1.1" id="Capa_1" xmlns="http://www.w3.org/2000/svg" xmlns:xlink="http://www.w3.org/1999/xlink" x="0px" y="0px"
	 viewBox="0 0 475.8 475.8" style="enable-background:new 0 0 475.8 475.8;" xml:space="preserve">
<path d="M458.3,204.801H301.25c-6.069-11.568-15.2-21.288-26.327-28.049l28.505-81.499c0.277-0.813,0.484-1.577,0.619-2.27
	c4.675-22.883-1.121-46.391-15.9-64.495c-11.79-14.442-28.102-23.963-46.086-27.227c-1.19-0.795-2.62-1.259-4.158-1.259
	c-0.805,0-1.579,0.13-2.306,0.365c-2.475-0.237-4.972-0.365-7.488-0.365h-5.81c-9.649,0-17.5,7.851-17.5,17.5v157.056
	c-11.566,6.069-21.284,15.198-28.045,26.323l-81.499-28.505c-0.815-0.278-1.58-0.486-2.275-0.622
	c-5.165-1.055-10.425-1.59-15.635-1.59c-38.815,0-71.033,28.811-76.514,66.215c-0.069,0.333-0.107,0.676-0.13,1.023
	C0.254,240.771,0,244.202,0,247.692v5.81c0,9.649,7.851,17.5,17.5,17.5h157.057c6.069,11.567,15.197,21.286,26.323,28.048
	l-28.507,81.513c-0.272,0.799-0.476,1.545-0.618,2.255c-4.674,22.881,1.122,46.388,15.902,64.493
	c14.78,18.104,36.663,28.488,60.036,28.488h5.81c9.649,0,17.5-7.851,17.5-17.5v-157.05c11.567-6.069,21.287-15.198,28.048-26.324
	l81.502,28.504c0.801,0.274,1.553,0.479,2.265,0.622c5.164,1.055,10.424,1.59,15.634,1.59c42.649,0,77.347-34.779,77.347-77.528
	v-5.811C475.8,212.652,467.949,204.801,458.3,204.801z M219.8,168.709V17.501c0-1.379,1.122-2.5,2.5-2.5h5.81
	c0.768,0,1.53,0.036,2.294,0.064v107.637c0,4.143,3.358,7.5,7.5,7.5s7.5-3.357,7.5-7.5V17.424
	c12.095,3.465,22.956,10.544,31.124,20.549c11.919,14.601,16.593,33.557,12.811,52.07c-0.007,0.037-0.032,0.146-0.088,0.312
	l-27.964,79.951c-4.043-1.403-8.195-2.417-12.43-3.065c-0.074-0.011-0.149-0.021-0.224-0.033c-1.016-0.152-2.037-0.282-3.063-0.39
	c-0.232-0.025-0.464-0.049-0.696-0.072c-0.898-0.086-1.8-0.154-2.704-0.206c-0.278-0.016-0.555-0.038-0.835-0.051
	c-1.134-0.053-2.271-0.086-3.414-0.087c-0.005,0-0.011,0-0.016,0c-0.001,0-0.001,0-0.002,0c-0.001,0-0.001,0-0.002,0
	c-1.118,0-2.23,0.034-3.339,0.085c-0.194,0.009-0.387,0.017-0.581,0.027c-1.127,0.06-2.249,0.144-3.366,0.257
	c-0.011,0.001-0.023,0.003-0.034,0.004C226.929,167.144,223.33,167.786,219.8,168.709z M168.708,256.001H17.5
	c-1.378,0-2.5-1.121-2.5-2.5v-5.81c0-0.768,0.03-1.529,0.058-2.29h120.446c4.142,0,7.5-3.357,7.5-7.5s-3.358-7.5-7.5-7.5H17.443
	c7.499-26.092,31.506-45.238,59.903-45.238c4.204,0,8.454,0.433,12.696,1.3c0.036,0.007,0.144,0.031,0.312,0.088l79.955,27.965
	c-1.411,4.069-2.43,8.244-3.077,12.5c-0.002,0.011-0.003,0.021-0.005,0.032c-0.167,1.099-0.307,2.203-0.422,3.313
	c-0.016,0.152-0.032,0.303-0.047,0.456c-0.099,1.019-0.178,2.043-0.234,3.07c-0.009,0.16-0.022,0.319-0.03,0.48
	c-0.056,1.174-0.094,2.351-0.094,3.535c0,1.175,0.037,2.345,0.093,3.51c0.005,0.095,0.008,0.191,0.014,0.286
	C166.759,246.563,167.49,251.342,168.708,256.001z M256.004,307.089v151.209c0,1.379-1.122,2.5-2.5,2.5h-5.81
	c-18.85,0-36.497-8.374-48.417-22.975s-16.594-33.556-12.82-52.03c0.006-0.032,0.034-0.155,0.096-0.34l27.964-79.961
	c4.012,1.393,8.13,2.403,12.332,3.052c0.171,0.027,0.343,0.049,0.514,0.075c0.906,0.133,1.816,0.25,2.73,0.348
	c0.104,0.011,0.206,0.029,0.311,0.04v108.096c0,4.143,3.358,7.5,7.5,7.5s7.5-3.357,7.5-7.5V309.006
	c0.034-0.004,0.067-0.009,0.102-0.013c1.035-0.109,2.066-0.24,3.093-0.394c0.088-0.013,0.177-0.025,0.265-0.038
	c1.132-0.174,2.258-0.377,3.378-0.605c0.046-0.009,0.092-0.02,0.138-0.029C253.594,307.677,254.804,307.403,256.004,307.089z
	 M259.972,289.911c-0.154,0.065-0.309,0.125-0.463,0.188c-0.709,0.295-1.423,0.582-2.146,0.848c-0.108,0.04-0.216,0.074-0.324,0.113
	c-0.775,0.28-1.555,0.549-2.344,0.795c-0.021,0.007-0.043,0.012-0.064,0.019c-2.634,0.818-5.35,1.449-8.133,1.876
	c-0.016,0.003-0.033,0.004-0.05,0.006c-0.906,0.138-1.819,0.255-2.738,0.349c-1.917,0.194-3.853,0.293-5.806,0.293
	c-1.041,0-2.077-0.03-3.107-0.085c-0.301-0.016-0.598-0.047-0.897-0.068c-0.682-0.047-1.363-0.099-2.04-0.17
	c-0.537-0.057-1.069-0.132-1.602-0.204c-0.419-0.056-0.838-0.11-1.255-0.176c-0.647-0.103-1.29-0.221-1.93-0.346
	c-0.287-0.056-0.575-0.111-0.861-0.171c-0.709-0.15-1.413-0.313-2.112-0.489c-0.203-0.051-0.406-0.104-0.608-0.157
	c-0.751-0.198-1.498-0.408-2.237-0.637c-0.129-0.04-0.257-0.083-0.385-0.123c-22.854-7.243-39.465-28.651-39.465-53.87
	c0-0.613,0.027-1.22,0.046-1.828c0.012-0.374,0.012-0.75,0.031-1.122c0.036-0.695,0.097-1.383,0.158-2.072
	c0.025-0.289,0.043-0.579,0.072-0.866c0.078-0.748,0.177-1.49,0.284-2.23c0.03-0.211,0.056-0.422,0.089-0.632
	c0.122-0.783,0.263-1.559,0.417-2.331c0.031-0.155,0.06-0.31,0.092-0.465c0.168-0.808,0.354-1.61,0.557-2.405
	c0.026-0.103,0.053-0.207,0.08-0.31c0.218-0.837,0.453-1.667,0.708-2.489c0.01-0.032,0.021-0.064,0.031-0.095
	c7.184-22.952,28.644-39.654,53.933-39.655c1.016,0,2.025,0.031,3.03,0.083c0.504,0.027,1.002,0.075,1.502,0.115
	c0.478,0.037,0.956,0.07,1.431,0.119c0.657,0.069,1.308,0.158,1.958,0.25c0.297,0.041,0.595,0.079,0.891,0.125
	c0.735,0.116,1.465,0.248,2.191,0.392c0.196,0.039,0.392,0.076,0.588,0.117c0.783,0.164,1.561,0.344,2.332,0.54
	c0.123,0.031,0.246,0.063,0.368,0.095c0.821,0.215,1.637,0.445,2.443,0.695c0.047,0.015,0.095,0.031,0.142,0.045
	c15.837,4.967,28.693,16.731,35.135,31.86c0.062,0.146,0.119,0.294,0.18,0.441c0.299,0.718,0.589,1.44,0.858,2.172
	c0.033,0.09,0.062,0.182,0.095,0.273c1.538,4.247,2.584,8.728,3.06,13.376c0.194,1.916,0.293,3.851,0.293,5.803
	c0,1.041-0.03,2.077-0.085,3.107c-0.016,0.302-0.048,0.601-0.069,0.902c-0.047,0.68-0.098,1.359-0.169,2.033
	c-0.058,0.541-0.133,1.077-0.206,1.613c-0.056,0.414-0.109,0.829-0.174,1.242c-0.104,0.652-0.222,1.3-0.348,1.944
	c-0.055,0.282-0.109,0.563-0.167,0.844c-0.151,0.715-0.315,1.425-0.493,2.13c-0.049,0.196-0.1,0.391-0.152,0.587
	c-0.2,0.758-0.412,1.511-0.642,2.256c-0.037,0.121-0.078,0.241-0.116,0.361C286.787,270.69,275.052,283.488,259.972,289.911z
	 M460.8,228.112c0,34.479-27.969,62.528-62.347,62.528c-4.203,0-8.453-0.434-12.664-1.293c-0.031-0.007-0.15-0.033-0.333-0.095
	l-79.961-27.965c1.393-4.012,2.403-8.131,3.051-12.332c0.026-0.17,0.049-0.341,0.074-0.511c0.133-0.907,0.25-1.817,0.348-2.732
	c0.011-0.104,0.029-0.207,0.04-0.311h108.095c4.142,0,7.5-3.357,7.5-7.5s-3.358-7.5-7.5-7.5H309.008
	c-0.004-0.037-0.01-0.073-0.014-0.11c-0.109-1.031-0.239-2.057-0.392-3.078c-0.014-0.091-0.025-0.182-0.039-0.273
	c-0.174-1.133-0.377-2.259-0.605-3.38c-0.008-0.042-0.018-0.083-0.026-0.125c-0.251-1.218-0.525-2.431-0.84-3.634H458.3
	c1.378,0,2.5,1.121,2.5,2.5V228.112z M270.404,237.902c0,17.949-14.551,32.5-32.5,32.5c-17.949,0-32.5-14.551-32.5-32.5
	s14.551-32.5,32.5-32.5C255.853,205.402,270.404,219.953,270.404,237.902z"/>
<g>
</g>
<g>
</g>
<g>
</g>
<g>
</g>
<g>
</g>
<g>
</g>
<g>
</g>
<g>
</g>
<g>
</g>
<g>
</g>
<g>
</g>
<g>
</g>
<g>
</g>
<g>
</g>
<g>
</g>
</svg>
