<?xml version="1.0" encoding="iso-8859-1"?>
<!-- Generator: Adobe Illustrator 17.1.0, SVG Export Plug-In . SVG Version: 6.00 Build 0)  -->
<!DOCTYPE svg PUBLIC "-//W3C//DTD SVG 1.1//EN" "http://www.w3.org/Graphics/SVG/1.1/DTD/svg11.dtd">
<svg version="1.1" id="Capa_1" xmlns="http://www.w3.org/2000/svg" xmlns:xlink="http://www.w3.org/1999/xlink" x="0px" y="0px"
	 viewBox="0 0 474.873 474.873" style="enable-background:new 0 0 474.873 474.873;" xml:space="preserve">
<path d="M363.317,245.77c-4.143,0-7.5,3.357-7.5,7.5v14.81c0,20.362-16.566,36.929-36.929,36.929s-36.929-16.566-36.929-36.929
	v-14.81c0-4.143-3.357-7.5-7.5-7.5s-7.5,3.357-7.5,7.5v14.81c0,14.414,5.907,27.47,15.422,36.888v27.423
	c0,29.035-23.621,52.656-52.656,52.656s-52.656-23.621-52.656-52.656V7.5c0-4.143-3.357-7.5-7.5-7.5h-58.014
	c-4.143,0-7.5,3.357-7.5,7.5v326.115c0,24.273,6.925,46.956,18.891,66.191c0.157,0.326,0.33,0.647,0.538,0.955
	c0.095,0.141,0.204,0.266,0.307,0.398c10.728,16.767,25.329,30.826,42.526,40.918c0.181,0.134,0.366,0.264,0.562,0.384
	c0.31,0.189,0.627,0.353,0.951,0.492c18.281,10.389,39.406,16.332,61.894,16.332c0.077,0,0.154-0.004,0.231-0.004
	c0.026,0,0.05,0.004,0.076,0.004c0.051,0,0.1-0.007,0.15-0.008c17.864-0.065,35.465-3.924,51.587-11.255v7.78
	c0,10.516,8.555,19.07,19.07,19.07h36.098c10.516,0,19.07-8.555,19.07-19.07V304.344c9.153-9.367,14.81-22.165,14.81-36.265v-14.81
	C370.817,249.127,367.46,245.77,363.317,245.77z M119.056,44.619h24.577c4.143,0,7.5-3.357,7.5-7.5s-3.357-7.5-7.5-7.5h-24.577V15
	h43.014v133.095h-43.014V44.619z M119.056,163.095h43.014v44.238h-43.014V163.095z M341.008,455.803c0,2.244-1.826,4.07-4.07,4.07
	H300.84c-2.244,0-4.07-1.826-4.07-4.07v-11.327h27.402c4.143,0,7.5-3.357,7.5-7.5s-3.357-7.5-7.5-7.5H296.77v-38.439
	c0-4.143-3.357-7.5-7.5-7.5s-7.5,3.357-7.5,7.5V431.3c-13.654,7.283-28.746,11.612-44.237,12.704v-25.541c0-4.143-3.357-7.5-7.5-7.5
	s-7.5,3.357-7.5,7.5v25.582c-14.677-0.947-28.585-4.762-41.164-10.899l14.605-23.883c2.161-3.534,1.048-8.15-2.485-10.312
	c-3.534-2.161-8.15-1.049-10.312,2.485l-14.817,24.229c-10.924-7.307-20.479-16.505-28.197-27.122l21.601-14.593
	c3.433-2.319,4.335-6.981,2.017-10.413s-6.982-4.335-10.413-2.017l-21.191,14.316c-8.367-15.565-13.121-33.349-13.121-52.223
	V222.333h43.014v110.058c0,37.306,30.351,67.656,67.656,67.656s67.656-30.351,67.656-67.656v-17.065
	c6.558,2.997,13.837,4.682,21.507,4.682c7.908,0,15.404-1.784,22.119-4.959V455.803z"/>
<g>
</g>
<g>
</g>
<g>
</g>
<g>
</g>
<g>
</g>
<g>
</g>
<g>
</g>
<g>
</g>
<g>
</g>
<g>
</g>
<g>
</g>
<g>
</g>
<g>
</g>
<g>
</g>
<g>
</g>
</svg>
