<?xml version="1.0" encoding="iso-8859-1"?>
<!-- Generator: Adobe Illustrator 17.1.0, SVG Export Plug-In . SVG Version: 6.00 Build 0)  -->
<!DOCTYPE svg PUBLIC "-//W3C//DTD SVG 1.1//EN" "http://www.w3.org/Graphics/SVG/1.1/DTD/svg11.dtd">
<svg version="1.1" id="Capa_1" xmlns="http://www.w3.org/2000/svg" xmlns:xlink="http://www.w3.org/1999/xlink" x="0px" y="0px"
	 viewBox="0 0 475.8 475.8" style="enable-background:new 0 0 475.8 475.8;" xml:space="preserve">
<path d="M263.631,25.731c-86.056,0-160.307,51.502-193.558,125.3H7.5c-4.142,0-7.5,3.358-7.5,7.5v52.912c0,4.142,3.358,7.5,7.5,7.5
	h44.819c-0.556,6.247-0.856,12.567-0.856,18.956s0.301,12.709,0.856,18.956H7.5c-4.142,0-7.5,3.358-7.5,7.5v52.912
	c0,4.142,3.358,7.5,7.5,7.5h62.574c33.251,73.798,107.501,125.3,193.558,125.3c116.99,0,212.168-95.178,212.168-212.168
	S380.622,25.731,263.631,25.731z M15,203.944v-37.912h49.003c-4.392,12.163-7.698,24.84-9.81,37.912H15z M15,309.768v-37.912h39.193
	c2.112,13.072,5.418,25.749,9.81,37.912H15z M263.631,435.068c-108.719,0-197.168-88.449-197.168-197.168
	S154.912,40.731,263.631,40.731S460.8,129.181,460.8,237.9S372.351,435.068,263.631,435.068z M263.631,99.118
	c-76.525,0-138.782,62.257-138.782,138.782c0,22.023,5.165,42.859,14.333,61.374c0.191,0.519,0.435,1.022,0.745,1.497
	c22.971,45.014,69.796,75.911,123.704,75.911c76.525,0,138.782-62.257,138.782-138.782S340.156,99.118,263.631,99.118z
	 M263.631,361.682c-23.807,0-46.062-6.762-64.956-18.457l142.097-142.097c2.929-2.929,2.929-7.678,0-10.606
	c-2.929-2.929-7.678-2.929-10.606,0L186.25,334.437c-12.459-10.006-22.945-22.368-30.78-36.406l142.148-142.148
	c2.929-2.929,2.929-7.678,0-10.606c-2.929-2.929-7.678-2.929-10.606,0L148.622,283.666c-5.656-14.164-8.773-29.607-8.773-45.766
	c0-68.254,55.528-123.782,123.782-123.782S387.414,169.646,387.414,237.9S331.885,361.682,263.631,361.682z M248.954,67.812
	c0-8.106,6.571-14.677,14.677-14.677s14.677,6.571,14.677,14.677s-6.571,14.677-14.677,14.677S248.954,75.918,248.954,67.812z
	 M278.309,407.988c0,8.106-6.571,14.677-14.677,14.677s-14.677-6.571-14.677-14.677s6.571-14.677,14.677-14.677
	S278.309,399.882,278.309,407.988z M373.523,128.008c-5.732-5.732-5.732-15.025,0-20.757c5.732-5.732,15.025-5.732,20.757,0
	c5.732,5.732,5.732,15.025,0,20.757S379.255,133.74,373.523,128.008z M153.74,347.792c5.732,5.732,5.732,15.025,0,20.757
	c-5.732,5.732-15.025,5.732-20.757,0s-5.732-15.025,0-20.757S148.008,342.06,153.74,347.792z M448.396,237.9
	c0,8.106-6.571,14.677-14.677,14.677s-14.677-6.571-14.677-14.677s6.571-14.677,14.677-14.677S448.396,229.794,448.396,237.9z
	 M108.221,237.9c0,8.106-6.571,14.677-14.677,14.677s-14.677-6.571-14.677-14.677s6.571-14.677,14.677-14.677
	S108.221,229.794,108.221,237.9z M394.28,347.792c5.732,5.732,5.732,15.025,0,20.757s-15.025,5.732-20.757,0
	c-5.732-5.732-5.732-15.025,0-20.757C379.255,342.06,388.548,342.06,394.28,347.792z M132.983,128.008
	c-5.732-5.732-5.732-15.025,0-20.757c5.732-5.732,15.025-5.732,20.757,0c5.732,5.732,5.732,15.025,0,20.757
	C148.008,133.74,138.715,133.74,132.983,128.008z"/>
<g>
</g>
<g>
</g>
<g>
</g>
<g>
</g>
<g>
</g>
<g>
</g>
<g>
</g>
<g>
</g>
<g>
</g>
<g>
</g>
<g>
</g>
<g>
</g>
<g>
</g>
<g>
</g>
<g>
</g>
</svg>
