<?xml version="1.0" encoding="iso-8859-1"?>
<!-- Generator: Adobe Illustrator 17.1.0, SVG Export Plug-In . SVG Version: 6.00 Build 0)  -->
<!DOCTYPE svg PUBLIC "-//W3C//DTD SVG 1.1//EN" "http://www.w3.org/Graphics/SVG/1.1/DTD/svg11.dtd">
<svg version="1.1" id="Capa_1" xmlns="http://www.w3.org/2000/svg" xmlns:xlink="http://www.w3.org/1999/xlink" x="0px" y="0px"
	 viewBox="0 0 475.801 475.801" style="enable-background:new 0 0 475.801 475.801;" xml:space="preserve">
<path d="M377.771,237.9c0,77.125-62.745,139.87-139.87,139.87S98.03,315.025,98.03,237.9S160.775,98.03,237.9,98.03
	c29.639,0,57.958,9.154,81.897,26.472c3.356,2.428,4.109,7.116,1.682,10.473c-2.429,3.357-7.12,4.108-10.473,1.681
	C289.641,121.2,264.361,113.03,237.9,113.03c-68.854,0-124.87,56.017-124.87,124.87s56.017,124.87,124.87,124.87
	s124.87-56.017,124.87-124.87c0-25.199-7.469-49.48-21.598-70.219c-2.332-3.423-1.448-8.088,1.976-10.421
	c3.423-2.331,8.089-1.448,10.421,1.976C369.401,182.475,377.771,209.676,377.771,237.9z M237.9,72.601c4.143,0,7.5-3.358,7.5-7.5
	V7.5c0-4.142-3.357-7.5-7.5-7.5s-7.5,3.358-7.5,7.5v57.6C230.4,69.243,233.758,72.601,237.9,72.601z M237.9,403.2
	c-4.143,0-7.5,3.358-7.5,7.5v57.6c0,4.142,3.357,7.5,7.5,7.5s7.5-3.358,7.5-7.5v-57.6C245.4,406.558,242.043,403.2,237.9,403.2z
	 M376.597,88.597l-21.812,21.812c-2.929,2.929-2.929,7.678,0,10.606c1.465,1.464,3.385,2.197,5.304,2.197s3.839-0.732,5.304-2.197
	l21.812-21.812c2.929-2.929,2.929-7.678,0-10.606C384.274,85.668,379.526,85.668,376.597,88.597z M110.409,354.785l-21.813,21.812
	c-2.929,2.929-2.929,7.678,0,10.606c1.465,1.465,3.384,2.197,5.304,2.197c1.919,0,3.839-0.732,5.304-2.197l21.813-21.812
	c2.929-2.929,2.929-7.678,0-10.606C118.087,351.856,113.339,351.856,110.409,354.785z M468.301,230.4H410.7
	c-4.143,0-7.5,3.358-7.5,7.5s3.357,7.5,7.5,7.5h57.601c4.143,0,7.5-3.358,7.5-7.5S472.443,230.4,468.301,230.4z M65.101,230.4H7.5
	c-4.143,0-7.5,3.358-7.5,7.5s3.357,7.5,7.5,7.5h57.601c4.143,0,7.5-3.358,7.5-7.5S69.243,230.4,65.101,230.4z M365.393,354.785
	c-2.929-2.929-7.677-2.929-10.607,0c-2.929,2.929-2.929,7.678,0,10.606l21.812,21.812c1.465,1.465,3.384,2.197,5.304,2.197
	c1.919,0,3.839-0.732,5.304-2.197c2.929-2.929,2.929-7.678,0-10.606L365.393,354.785z M110.595,121.194
	c1.445,1.35,3.283,2.018,5.116,2.018c2.006,0,4.007-0.8,5.484-2.382c2.826-3.028,2.663-7.773-0.364-10.6L99.019,89.866
	c-3.026-2.827-7.772-2.664-10.601,0.364c-2.826,3.028-2.663,7.773,0.364,10.6L110.595,121.194z"/>
<g>
</g>
<g>
</g>
<g>
</g>
<g>
</g>
<g>
</g>
<g>
</g>
<g>
</g>
<g>
</g>
<g>
</g>
<g>
</g>
<g>
</g>
<g>
</g>
<g>
</g>
<g>
</g>
<g>
</g>
</svg>
