<?xml version="1.0" encoding="iso-8859-1"?>
<!-- Generator: Adobe Illustrator 17.1.0, SVG Export Plug-In . SVG Version: 6.00 Build 0)  -->
<!DOCTYPE svg PUBLIC "-//W3C//DTD SVG 1.1//EN" "http://www.w3.org/Graphics/SVG/1.1/DTD/svg11.dtd">
<svg version="1.1" id="Capa_1" xmlns="http://www.w3.org/2000/svg" xmlns:xlink="http://www.w3.org/1999/xlink" x="0px" y="0px"
	 viewBox="0 0 475.03 475.03" style="enable-background:new 0 0 475.03 475.03;" xml:space="preserve">
<path d="M254.712,192.847c13.32,17.228,20.36,37.87,20.36,59.696c0,53.856-43.815,97.672-97.672,97.672S79.729,306.4,79.729,252.543
	s43.815-97.672,97.672-97.672c17.542,0,34.748,4.705,49.757,13.607c3.563,2.113,4.738,6.715,2.625,10.277
	c-2.113,3.562-6.712,4.736-10.277,2.625c-12.695-7.53-27.254-11.51-42.105-11.51c-45.585,0-82.672,37.087-82.672,82.672
	s37.086,82.672,82.672,82.672s82.672-37.087,82.672-82.672c0-18.475-5.957-35.945-17.227-50.521
	c-2.534-3.277-1.931-7.987,1.346-10.521C247.469,188.968,252.179,189.572,254.712,192.847z M245.015,252.543
	c0,37.282-30.332,67.614-67.615,67.614c-7.701,0-15.098-1.312-22-3.695c-0.335-0.089-0.665-0.199-0.988-0.335
	c-25.999-9.429-44.626-34.37-44.626-63.585c0-37.282,30.332-67.614,67.614-67.614S245.015,215.261,245.015,252.543z
	 M230.015,252.543c0-29.012-23.603-52.614-52.615-52.614s-52.614,23.603-52.614,52.614c0,5.718,0.929,11.219,2.623,16.378
	l37.636-37.636c2.929-2.928,7.678-2.928,10.606,0c2.929,2.93,2.929,7.678,0,10.607l-41.112,41.112
	c5.336,7.487,12.577,13.518,21.016,17.386l40.99-40.99c2.929-2.928,7.678-2.928,10.606,0c2.929,2.93,2.929,7.678,0,10.607
	l-34.896,34.896c1.693,0.165,3.408,0.255,5.143,0.255C206.412,305.158,230.015,281.555,230.015,252.543z M380.273,162.372v60.114
	c0,4.143-3.358,7.5-7.5,7.5H297.63c-4.142,0-7.5-3.357-7.5-7.5v-60.114c0-4.143,3.358-7.5,7.5-7.5h75.143
	C376.915,154.872,380.273,158.229,380.273,162.372z M365.273,169.872H305.13v45.114h60.143V169.872z M467.363,208.212
	c-0.783,0.783-0.874,1.698-0.858,2.174s0.167,1.383,1.001,2.112l1.4,1.226c3.891,3.404,6.124,8.324,6.124,13.498v5.247
	c0,4.565-1.717,8.916-4.834,12.251l-3.653,3.905c-1.087,1.163-1.057,2.955,0.069,4.081l3.165,3.165
	c3.388,3.388,5.253,7.893,5.253,12.684v3.815c0,4.515-1.684,8.829-4.742,12.15l-4.018,4.362c-1.038,1.127-1.028,2.886,0.023,4.003
	l3.862,4.103c3.145,3.343,4.875,7.708,4.875,12.294v9.95c0,17.084-13.898,30.982-30.982,30.982h-18.713
	c-0.492,16.657-14.186,30.058-30.959,30.058H80.653c-16.773,0-30.466-13.401-30.958-30.058H30.982
	C13.898,350.215,0,336.317,0,319.233v-7.262c0-4.791,1.866-9.296,5.254-12.683l2.413-2.413c0.784-0.784,0.875-1.699,0.859-2.175
	s-0.167-1.383-1.001-2.112l-1.398-1.223C2.232,287.958,0,283.038,0,277.866v-5.248c0-4.565,1.717-8.916,4.834-12.251l3.653-3.905
	c1.086-1.162,1.057-2.955-0.069-4.081l-3.165-3.165C1.866,245.828,0,241.323,0,236.532v-3.814c0-4.515,1.684-8.83,4.742-12.151
	l4.018-4.362c1.038-1.127,1.028-2.885-0.022-4.001l-3.864-4.105C1.731,204.759,0,200.393,0,195.805v-9.951
	c0-17.084,13.898-30.982,30.982-30.982h18.713c0.492-16.657,14.185-30.058,30.958-30.058h230.315v-22.557c0-4.143,3.358-7.5,7.5-7.5
	h54.305c4.142,0,7.5,3.357,7.5,7.5v22.557h14.104c16.773,0,30.467,13.401,30.959,30.058h18.713
	c17.083,0,30.982,13.898,30.982,30.982v7.262c0,4.791-1.866,9.296-5.253,12.684L467.363,208.212z M30.982,335.215h18.689V298.45
	H39.134c-4.142,0-7.5-3.357-7.5-7.5s3.358-7.5,7.5-7.5h10.537v-23.406H39.134c-4.142,0-7.5-3.357-7.5-7.5s3.358-7.5,7.5-7.5h10.537
	v-28.416H39.134c-4.142,0-7.5-3.357-7.5-7.5s3.358-7.5,7.5-7.5h10.537v-31.756H30.982c-8.813,0-15.982,7.17-15.982,15.982v9.951
	c0,0.751,0.283,1.465,0.797,2.012l3.864,4.105c6.417,6.817,6.476,17.554,0.133,24.442l-4.018,4.363
	c-0.5,0.543-0.776,1.25-0.776,1.989v3.814c0,0.784,0.305,1.522,0.86,2.076l3.165,3.165c6.877,6.877,7.061,17.83,0.418,24.935
	l-3.653,3.905C15.281,271.157,15,271.87,15,272.618v5.248c0,0.847,0.366,1.652,1.003,2.211l1.397,1.222
	c3.723,3.258,5.952,7.96,6.116,12.902s-1.747,9.783-5.243,13.28l-2.414,2.414c-0.555,0.556-0.86,1.292-0.86,2.076v7.262
	C15,328.045,22.169,335.215,30.982,335.215z M410.359,155.796c0-8.813-7.17-15.982-15.982-15.982h-21.604
	c-4.142,0-7.5-3.357-7.5-7.5v-22.557h-39.305v15.057h18.417c4.142,0,7.5,3.357,7.5,7.5s-3.358,7.5-7.5,7.5H80.653
	c-8.813,0-15.982,7.17-15.982,15.982v193.494c0,8.813,7.169,15.982,15.982,15.982h313.723c8.813,0,15.982-7.17,15.982-15.982
	V155.796z M460.03,185.854c0-8.813-7.169-15.982-15.982-15.982h-18.689v31.756h10.537c4.142,0,7.5,3.357,7.5,7.5s-3.358,7.5-7.5,7.5
	h-10.537v28.416h10.537c4.142,0,7.5,3.357,7.5,7.5s-3.358,7.5-7.5,7.5h-10.537v23.406h10.537c4.142,0,7.5,3.357,7.5,7.5
	s-3.358,7.5-7.5,7.5h-10.537v36.766h18.689c8.813,0,15.982-7.17,15.982-15.982v-9.95c0-0.751-0.284-1.467-0.799-2.015l-3.861-4.102
	c-6.418-6.819-6.477-17.557-0.134-24.444l4.018-4.363c0.5-0.543,0.776-1.249,0.776-1.988v-3.815c0-0.773-0.313-1.53-0.86-2.076
	l-3.165-3.165c-6.878-6.878-7.062-17.831-0.417-24.935l3.651-3.904c0.51-0.545,0.791-1.258,0.791-2.006v-5.247
	c0-0.847-0.365-1.652-1.002-2.21l-1.401-1.226c-3.721-3.256-5.95-7.958-6.114-12.9s1.747-9.783,5.243-13.28l2.415-2.414
	c0.546-0.546,0.859-1.303,0.859-2.076V185.854z"/>
<g>
</g>
<g>
</g>
<g>
</g>
<g>
</g>
<g>
</g>
<g>
</g>
<g>
</g>
<g>
</g>
<g>
</g>
<g>
</g>
<g>
</g>
<g>
</g>
<g>
</g>
<g>
</g>
<g>
</g>
</svg>
