<?xml version="1.0" encoding="iso-8859-1"?>
<!-- Generator: Adobe Illustrator 19.0.0, SVG Export Plug-In . SVG Version: 6.00 Build 0)  -->
<svg version="1.1" id="Capa_1" xmlns="http://www.w3.org/2000/svg" xmlns:xlink="http://www.w3.org/1999/xlink" x="0px" y="0px"
	 viewBox="0 0 512.001 512.001" style="enable-background:new 0 0 512.001 512.001;" xml:space="preserve">
<g>
	<g>
		<g>
			<path d="M475.341,248.446c-1.875-55.793-24.474-107.974-64.143-147.644c-39.669-39.668-91.85-62.267-147.643-64.142L256.001,0
				l-7.554,36.66c-55.792,1.874-107.973,24.474-147.643,64.142c-39.669,39.669-62.268,91.851-64.142,147.644L0,256l36.661,7.554
				c1.874,55.793,24.474,107.974,64.142,147.644c39.669,39.668,91.85,62.267,147.643,64.142l7.554,36.66l7.554-36.66
				c55.793-1.874,107.973-24.474,147.643-64.142c39.669-39.669,62.268-91.851,64.143-147.644L512,256L475.341,248.446z
				 M398.877,109.828l-46.122,30.361c-20.902-17.491-46.588-29.439-74.784-33.568l-11.304-54.856
				C317.99,54.416,364.361,76.083,398.877,109.828z M356.069,155.931l-39.38,59.822l-16.948-3.492l-3.493-16.95L356.069,155.931z
				 M292.996,179.529l-11.784-57.188c21.731,4.09,41.655,13.358,58.432,26.48L292.996,179.529z M363.18,172.358
				c13.122,16.778,22.391,36.701,26.481,58.432l-57.189-11.784L363.18,172.358z M245.334,51.766l-11.304,54.856
				c-28.196,4.129-53.882,16.077-74.784,33.568l-46.122-30.361C147.641,76.083,194.012,54.416,245.334,51.766z M155.932,155.932
				l59.821,39.38l-3.492,16.95l-16.948,3.492L155.932,155.932z M179.53,219.006l-57.189,11.784
				c4.09-21.731,13.359-41.656,26.481-58.432L179.53,219.006z M172.36,148.822c16.777-13.122,36.701-22.391,58.432-26.481
				l-11.785,57.189L172.36,148.822z M109.828,113.124l30.361,46.122c-17.491,20.902-29.44,46.588-33.568,74.784l-54.855,11.303
				C54.416,194.011,76.083,147.641,109.828,113.124z M51.766,266.667l54.855,11.303c4.129,28.195,16.077,53.882,33.569,74.784
				l-30.361,46.122C76.083,364.359,54.416,317.989,51.766,266.667z M155.932,356.069l39.381-59.822l16.948,3.492l3.492,16.95
				L155.932,356.069z M219.006,332.472l11.784,57.188c-21.731-4.09-41.654-13.358-58.431-26.48L219.006,332.472z M148.822,339.642
				c-13.122-16.777-22.391-36.702-26.481-58.432l57.189,11.784L148.822,339.642z M113.125,402.172l46.122-30.361
				c20.902,17.491,46.588,29.439,74.784,33.568l11.304,54.856C194.012,457.585,147.641,435.917,113.125,402.172z M256.001,437.821
				l-31.065-150.756L74.18,256l150.756-31.065L256.001,74.18l31.065,150.756L437.822,256l-150.756,31.065L256.001,437.821z
				 M296.248,316.689l3.493-16.95l16.948-3.492l39.381,59.822L296.248,316.689z M339.642,363.179
				c-16.777,13.122-36.701,22.391-58.432,26.48l11.785-57.188L339.642,363.179z M332.472,292.994l57.189-11.784
				c-4.09,21.731-13.359,41.656-26.481,58.432L332.472,292.994z M266.668,460.235l11.304-54.856
				c28.196-4.129,53.882-16.077,74.784-33.568l46.122,30.361C364.361,435.917,317.99,457.585,266.668,460.235z M402.173,398.876
				l-30.361-46.122c17.491-20.902,29.44-46.588,33.569-74.784l54.855-11.303C457.586,317.989,435.918,364.359,402.173,398.876z
				 M405.38,234.03c-4.129-28.195-16.077-53.882-33.569-74.784l30.361-46.122c33.746,34.516,55.413,80.887,58.063,132.209
				L405.38,234.03z"/>
			<path d="M306.626,263.485V256v-7.486H289.81c-2.897-13.097-13.226-23.426-26.323-26.323v-29.756h-7.486h-7.486v29.756
				c-13.097,2.897-23.425,13.227-26.323,26.323h-20.229v14.971h20.229c2.898,13.097,13.227,23.425,26.323,26.323v29.757h7.486h7.486
				v-29.757c13.097-2.898,23.425-13.226,26.323-26.323H306.626z M256.001,275.663c-10.841-0.001-19.661-8.821-19.661-19.662
				s8.82-19.662,19.661-19.662s19.661,8.82,19.661,19.662S266.842,275.663,256.001,275.663z"/>
			<polygon points="337.861,256 337.861,248.515 323.613,248.515 323.613,256 323.613,263.486 337.861,263.486 			"/>
			<polygon points="163.606,256 163.606,263.486 181.141,263.486 181.141,248.515 163.606,248.515 			"/>
		</g>
	</g>
</g>
<g>
</g>
<g>
</g>
<g>
</g>
<g>
</g>
<g>
</g>
<g>
</g>
<g>
</g>
<g>
</g>
<g>
</g>
<g>
</g>
<g>
</g>
<g>
</g>
<g>
</g>
<g>
</g>
<g>
</g>
</svg>
