<?xml version="1.0" encoding="iso-8859-1"?>
<!-- Generator: Adobe Illustrator 17.1.0, SVG Export Plug-In . SVG Version: 6.00 Build 0)  -->
<!DOCTYPE svg PUBLIC "-//W3C//DTD SVG 1.1//EN" "http://www.w3.org/Graphics/SVG/1.1/DTD/svg11.dtd">
<svg version="1.1" id="Capa_1" xmlns="http://www.w3.org/2000/svg" xmlns:xlink="http://www.w3.org/1999/xlink" x="0px" y="0px"
	 viewBox="0 0 470.455 470.455" style="enable-background:new 0 0 470.455 470.455;" xml:space="preserve">
<path d="M433.253,431.581c-9.682-2.083-23.806-3.799-41.979-5.103c-30.705-2.201-73.859-3.317-128.264-3.317
	c-18.865,0-38.027,0.136-56.826,0.36v-56.585l194.108-31.562c9.159-0.196,17.452-4.549,22.832-12.009
	c5.508-7.637,6.962-17.14,3.989-26.073c-0.046-0.14-0.097-0.278-0.151-0.415l-64.862-162.384
	c-22.716-68-84.783-114.395-155.916-117.356V7.5c0-4.143-3.358-7.5-7.5-7.5s-7.5,3.357-7.5,7.5v345.516h-52.055
	c-4.142,0-7.5,3.357-7.5,7.5s3.358,7.5,7.5,7.5h52.055v55.704c-82.134,1.189-153.668,3.874-157.201,4.008
	c-9.976,0.086-18.065,8.228-18.065,18.224v1.714c0,9.996,8.089,18.138,18.065,18.224c4.544,0.173,121.609,4.566,229.021,4.566
	c54.404,0,97.56-1.116,128.266-3.318c18.175-1.303,32.3-3.02,41.981-5.102c6.908-1.486,21.285-4.579,21.285-15.228
	S440.161,433.067,433.253,431.581z M347.937,139.44c0.046,0.14,0.097,0.278,0.151,0.415l64.853,162.359
	c1.351,4.25,0.632,8.75-1.983,12.376c-2.653,3.68-6.777,5.79-11.314,5.79c-0.403,0-0.806,0.032-1.204,0.098L206.184,351.74v-48.444
	h183.043c4.143,0,7.5-3.357,7.5-7.5s-3.357-7.5-7.5-7.5H206.184v-53.642h152.599c4.143,0,7.5-3.357,7.5-7.5s-3.357-7.5-7.5-7.5
	H206.184v-53.643h125.142c4.143,0,7.5-3.357,7.5-7.5s-3.357-7.5-7.5-7.5H206.184V97.37h89.284c4.143,0,7.5-3.357,7.5-7.5
	s-3.357-7.5-7.5-7.5h-89.284V32.155C270.916,35.109,327.321,77.468,347.937,139.44z M382.188,452.707
	c-29.672,1.823-69.771,2.748-119.184,2.748c-108.714,0-227.387-4.515-228.573-4.56c-0.096-0.004-0.192-0.006-0.288-0.006
	c-1.778,0-3.225-1.446-3.225-3.225v-1.714c0-1.778,1.447-3.225,3.225-3.225c0.096,0,0.192-0.002,0.288-0.006
	c1.186-0.045,119.854-4.56,228.578-4.56c49.412,0,89.511,0.925,119.182,2.748c28.194,1.731,42.881,4.052,50.496,5.898
	C425.071,448.654,410.385,450.975,382.188,452.707z"/>
<g>
</g>
<g>
</g>
<g>
</g>
<g>
</g>
<g>
</g>
<g>
</g>
<g>
</g>
<g>
</g>
<g>
</g>
<g>
</g>
<g>
</g>
<g>
</g>
<g>
</g>
<g>
</g>
<g>
</g>
</svg>
