<?xml version="1.0" encoding="iso-8859-1"?>
<!-- Generator: Adobe Illustrator 17.1.0, SVG Export Plug-In . SVG Version: 6.00 Build 0)  -->
<!DOCTYPE svg PUBLIC "-//W3C//DTD SVG 1.1//EN" "http://www.w3.org/Graphics/SVG/1.1/DTD/svg11.dtd">
<svg version="1.1" id="Capa_1" xmlns="http://www.w3.org/2000/svg" xmlns:xlink="http://www.w3.org/1999/xlink" x="0px" y="0px"
	 viewBox="0 0 481.388 481.388" style="enable-background:new 0 0 481.388 481.388;" xml:space="preserve">
<path d="M381.515,432.486c6.819-22.455,30.99-107.963,30.99-191.792s-24.171-169.337-30.99-191.792
	c3.715-3.211,6.079-7.946,6.079-13.23V17.5c0-9.649-7.851-17.5-17.5-17.5h-258.8c-9.649,0-17.5,7.851-17.5,17.5v18.171
	c0,5.284,2.364,10.018,6.079,13.23c-6.819,22.454-30.99,107.963-30.99,191.793c0,83.711,24.226,169.476,30.992,191.791
	c-3.716,3.211-6.081,7.946-6.081,13.231v18.171c0,9.649,7.851,17.5,17.5,17.5h258.8c9.649,0,17.5-7.851,17.5-17.5v-18.171
	C387.594,440.432,385.23,435.698,381.515,432.486z M108.794,17.5c0-1.378,1.122-2.5,2.5-2.5h258.8c1.379,0,2.5,1.122,2.5,2.5v18.171
	c0,1.378-1.121,2.5-2.5,2.5h-51.388c-1.2-0.322-2.495-0.354-3.786-0.026c-0.029,0.007-0.056,0.019-0.085,0.026h-72.223
	c-0.613-0.162-1.254-0.257-1.918-0.257s-1.304,0.095-1.918,0.257h-72.224c-0.029-0.008-0.056-0.019-0.086-0.026
	c-1.289-0.328-2.584-0.296-3.783,0.026h-51.39c-1.378,0-2.5-1.122-2.5-2.5V17.5z M114.271,53.171h40.711
	c-27.319,113.256-29.512,228.162-6.487,341.701c0.722,3.557,3.849,6.011,7.343,6.011c0.494,0,0.996-0.049,1.499-0.151
	c4.06-0.823,6.683-4.782,5.86-8.841c-22.824-112.546-20.374-226.471,7.235-338.719h62.763l0,340.207c0,4.142,3.358,7.5,7.5,7.5
	c4.143,0,7.5-3.358,7.5-7.5l0.001-340.207h62.761c27.609,112.246,30.059,226.171,7.235,338.719c-0.823,4.06,1.801,8.018,5.86,8.841
	c0.503,0.102,1.004,0.151,1.498,0.151c3.493,0,6.621-2.455,7.343-6.011c23.025-113.54,20.832-228.446-6.486-341.7h40.711
	c6.477,21.556,30.389,106.636,30.389,187.522s-23.912,165.967-30.389,187.522H114.251C107.76,406.86,83.883,322.7,83.883,240.694
	C83.883,159.808,107.794,74.727,114.271,53.171z M372.594,463.888c0,1.378-1.121,2.5-2.5,2.5h-258.8c-1.378,0-2.5-1.122-2.5-2.5
	v-18.171c0-1.378,1.122-2.5,2.5-2.5h258.8c1.379,0,2.5,1.122,2.5,2.5V463.888z"/>
<g>
</g>
<g>
</g>
<g>
</g>
<g>
</g>
<g>
</g>
<g>
</g>
<g>
</g>
<g>
</g>
<g>
</g>
<g>
</g>
<g>
</g>
<g>
</g>
<g>
</g>
<g>
</g>
<g>
</g>
</svg>
