<?xml version="1.0" encoding="iso-8859-1"?>
<!-- Generator: Adobe Illustrator 17.1.0, SVG Export Plug-In . SVG Version: 6.00 Build 0)  -->
<!DOCTYPE svg PUBLIC "-//W3C//DTD SVG 1.1//EN" "http://www.w3.org/Graphics/SVG/1.1/DTD/svg11.dtd">
<svg version="1.1" id="Capa_1" xmlns="http://www.w3.org/2000/svg" xmlns:xlink="http://www.w3.org/1999/xlink" x="0px" y="0px"
	 viewBox="0 0 478.2 478.2" style="enable-background:new 0 0 478.2 478.2;" xml:space="preserve">
<path d="M412.224,216.392c4.143,0,7.5-3.358,7.5-7.5s-3.357-7.5-7.5-7.5h-4.511V95.557h4.511c4.143,0,7.5-3.358,7.5-7.5
	s-3.357-7.5-7.5-7.5h-4.511V47.778C407.713,21.433,386.28,0,359.935,0c-16.909,0-31.784,8.838-40.278,22.129
	C311.163,8.838,296.288,0,279.378,0S247.594,8.838,239.1,22.129C230.606,8.838,215.731,0,198.822,0s-31.784,8.838-40.278,22.129
	C150.05,8.838,135.175,0,118.265,0C91.92,0,70.487,21.433,70.487,47.778v32.778h-4.511c-4.143,0-7.5,3.358-7.5,7.5
	s3.357,7.5,7.5,7.5h4.511v105.835h-4.511c-4.143,0-7.5,3.358-7.5,7.5s3.357,7.5,7.5,7.5h4.511v105.834h-4.511
	c-4.143,0-7.5,3.358-7.5,7.5s3.357,7.5,7.5,7.5h4.511v93.196c0,26.345,21.434,47.778,47.778,47.778
	c16.909,0,31.784-8.838,40.278-22.129c8.494,13.291,23.369,22.129,40.278,22.129s31.784-8.838,40.278-22.129
	c8.494,13.291,23.369,22.129,40.278,22.129s31.784-8.838,40.278-22.129c8.494,13.291,23.369,22.129,40.278,22.129
	c26.345,0,47.778-21.433,47.778-47.778v-93.196h4.511c4.143,0,7.5-3.358,7.5-7.5s-3.357-7.5-7.5-7.5h-4.511V216.392H412.224z
	 M279.378,15c18.074,0,32.778,14.704,32.778,32.778v32.778H246.6V47.778C246.6,29.704,261.304,15,279.378,15z M312.157,395.709
	c-8.563-8.09-20.097-13.066-32.778-13.066s-24.216,4.976-32.778,13.066v-58.483h65.557V395.709z M166.043,337.226H231.6v58.483
	c-8.563-8.09-20.097-13.066-32.778-13.066s-24.216,4.976-32.778,13.066V337.226z M231.6,216.392v105.834h-65.557V216.392H231.6z
	 M166.043,201.392V95.557H231.6v105.835H166.043z M246.6,322.226V216.392h65.557v105.834H246.6z M246.6,201.392V95.557h65.557
	v105.835H246.6z M198.822,15c18.074,0,32.778,14.704,32.778,32.778v32.778h-65.557V47.778C166.043,29.704,180.748,15,198.822,15z
	 M85.487,47.778C85.487,29.704,100.191,15,118.265,15s32.778,14.704,32.778,32.778v32.778H85.487V47.778z M85.487,95.557h65.557
	v105.835H85.487V95.557z M85.487,216.392h65.557v105.834H85.487V216.392z M151.043,337.226v58.483
	c-8.563-8.09-20.097-13.066-32.778-13.066s-24.216,4.976-32.778,13.066v-58.483H151.043z M118.265,463.2
	c-18.074,0-32.778-14.704-32.778-32.778s14.704-32.778,32.778-32.778s32.778,14.704,32.778,32.778S136.339,463.2,118.265,463.2z
	 M198.822,463.2c-18.074,0-32.778-14.704-32.778-32.778s14.704-32.778,32.778-32.778s32.778,14.704,32.778,32.778
	S216.896,463.2,198.822,463.2z M279.378,463.2c-18.074,0-32.778-14.704-32.778-32.778s14.704-32.778,32.778-32.778
	s32.778,14.704,32.778,32.778S297.453,463.2,279.378,463.2z M359.935,463.2c-18.074,0-32.778-14.704-32.778-32.778
	s14.704-32.778,32.778-32.778s32.778,14.704,32.778,32.778S378.009,463.2,359.935,463.2z M392.713,322.226h-12.639
	c-4.143,0-7.5,3.358-7.5,7.5s3.357,7.5,7.5,7.5h12.639v58.483c-8.563-8.09-20.097-13.066-32.778-13.066s-24.216,4.976-32.778,13.066
	v-58.483H354.3c4.143,0,7.5-3.358,7.5-7.5s-3.357-7.5-7.5-7.5h-27.144V216.392H354.3c4.143,0,7.5-3.358,7.5-7.5s-3.357-7.5-7.5-7.5
	h-27.144V95.557H354.3c4.143,0,7.5-3.358,7.5-7.5s-3.357-7.5-7.5-7.5h-27.144V47.778c0-18.074,14.704-32.778,32.778-32.778
	s32.778,14.704,32.778,32.778v32.778h-12.639c-4.143,0-7.5,3.358-7.5,7.5s3.357,7.5,7.5,7.5h12.639v105.835h-12.639
	c-4.143,0-7.5,3.358-7.5,7.5s3.357,7.5,7.5,7.5h12.639V322.226z"/>
<g>
</g>
<g>
</g>
<g>
</g>
<g>
</g>
<g>
</g>
<g>
</g>
<g>
</g>
<g>
</g>
<g>
</g>
<g>
</g>
<g>
</g>
<g>
</g>
<g>
</g>
<g>
</g>
<g>
</g>
</svg>
