<?xml version="1.0" encoding="utf-8"?>
<svg viewBox="137.362 52.038 87.156 314.032" xmlns="http://www.w3.org/2000/svg">
  <path style="fill:#ebebeb;fill-opacity:1;stroke:#000000;stroke-width:1;stroke-linecap:butt;stroke-linejoin:miter;stroke-miterlimit:4;stroke-opacity:1;stroke-dasharray:none" d="m 195.46787,334.49842 c -24.43429,0 -37.7409,52.59062 -37.7409,128.75 0,136.54005 17.46075,177.43955 26.74058,182.79726 5.72607,3.30595 16.25039,3.31934 22,-2e-4 9.23116,-5.32961 26.74121,-46.71337 26.74121,-182.79671 0,-76.35233 -13.30661,-128.75035 -37.74089,-128.75035 z" id="path3016-7-8" transform="matrix(0.943634, 0, 0, 1, -11.474145, -282.46085)"/>
  <path id="path4038" d="m 195.46786,647.68715 0,-312.36597" style="fill:none;stroke:#e4c124;stroke-width:0.69999999;stroke-linecap:round;stroke-linejoin:miter;stroke-miterlimit:4;stroke-opacity:1;stroke-dasharray:none" transform="matrix(0.943634, 0, 0, 1, -11.474145, -282.46085)"/>
  <path style="fill:#828282;fill-opacity:1;stroke:#000000;stroke-width:1;stroke-linecap:butt;stroke-linejoin:miter;stroke-miterlimit:4;stroke-opacity:1;stroke-dasharray:none" d="m 201.73136,441.85839 c -3.25491,-0.97673 -3.51942,-2.4136 -0.62346,-3.56989 1.01247,-0.40425 2.13288,-0.61504 3.22181,-0.56267 3.12201,0.15013 3.37789,1.52901 0.62325,3.56992 l 27.29572,156.29145 c 2.06976,11.85114 13.47153,16.83128 15.83147,30.34407 l 1.91601,10.97088 c 0.93578,5.35821 -5.44252,8.12864 -8.0187,8.57856 l -5.10375,0.89134 c -2.52968,0.4418 -9.5047,0.0698 -10.45173,-5.35279 l -1.91601,-10.97088 c -2.38817,-13.67444 6.58729,-22.06393 4.52048,-33.89844 z" id="path4034" transform="matrix(0.943634, 0, 0, 1, -11.474145, -282.46085)"/>
</svg>